<?xml version="1.0" encoding="UTF-8" standalone="no"?>
<!-- Created with Inkscape (http://www.inkscape.org/) -->

<svg
   width="28.052147mm"
   height="5.8208332mm"
   viewBox="0 0 28.052147 5.8208332"
   version="1.1"
   id="svg1"
   xmlns="http://www.w3.org/2000/svg"
   xmlns:svg="http://www.w3.org/2000/svg">
  <defs
     id="defs1">
    <clipPath
       clipPathUnits="userSpaceOnUse"
       id="clipPath402">
      <path
         d="M 0,0 H 842 V 1191 H 0 Z"
         transform="scale(1.3333333)"
         id="path402" />
    </clipPath>
    <clipPath
       clipPathUnits="userSpaceOnUse"
       id="clipPath401">
      <path
         d="M 145.414,203.5 H 226 c 4.141,0 7.5,3.359 7.5,7.5 0,4.141 -3.359,7.5 -7.5,7.5 h -80.586 c -4.141,0 -7.5,-3.359 -7.5,-7.5 0,-4.141 3.359,-7.5 7.5,-7.5 z"
         id="path401" />
    </clipPath>
    <clipPath
       clipPathUnits="userSpaceOnUse"
       id="clipPath404">
      <path
         d="M 0,0 H 842 V 1191 H 0 Z"
         transform="scale(1.3333333)"
         id="path404" />
    </clipPath>
    <clipPath
       clipPathUnits="userSpaceOnUse"
       id="clipPath403">
      <path
         d="M 145.5,203.5 H 226 c 4.141,0 7.5,3.359 7.5,7.5 0,4.141 -3.359,7.5 -7.5,7.5 h -80.5 c -4.141,0 -7.5,-3.359 -7.5,-7.5 0,-4.141 3.359,-7.5 7.5,-7.5 z"
         id="path403" />
    </clipPath>
    <clipPath
       clipPathUnits="userSpaceOnUse"
       id="clipPath406">
      <path
         d="M 0,0 H 842 V 1191 H 0 Z"
         transform="scale(1.3333333)"
         id="path406" />
    </clipPath>
    <clipPath
       clipPathUnits="userSpaceOnUse"
       id="clipPath405">
      <path
         d="M 145.414,203.5 H 226 c 4.141,0 7.5,3.359 7.5,7.5 0,4.141 -3.359,7.5 -7.5,7.5 h -80.586 c -4.141,0 -7.5,-3.359 -7.5,-7.5 0,-4.141 3.359,-7.5 7.5,-7.5 z"
         id="path405" />
    </clipPath>
    <clipPath
       clipPathUnits="userSpaceOnUse"
       id="clipPath407">
      <path
         d="M 0,0 H 842 V 1191 H 0 Z"
         id="path407" />
    </clipPath>
    <clipPath
       clipPathUnits="userSpaceOnUse"
       id="clipPath408">
      <path
         d="M 0,0 H 842 V 1191 H 0 Z"
         id="path408" />
    </clipPath>
    <clipPath
       clipPathUnits="userSpaceOnUse"
       id="clipPath448">
      <path
         d="M 0,0 H 842 V 1191 H 0 Z"
         transform="scale(1.3333333)"
         id="path448" />
    </clipPath>
    <clipPath
       clipPathUnits="userSpaceOnUse"
       id="clipPath447">
      <path
         d="m 150.012,221.5 h 57.289 c 4.137,0 7.5,3.359 7.5,7.5 0,4.141 -3.363,7.5 -7.5,7.5 h -57.289 c -4.137,0 -7.5,-3.359 -7.5,-7.5 0,-4.141 3.363,-7.5 7.5,-7.5 z"
         id="path447" />
    </clipPath>
    <clipPath
       clipPathUnits="userSpaceOnUse"
       id="clipPath449">
      <path
         d="M 0,0 H 842 V 1191 H 0 Z"
         id="path449" />
    </clipPath>
  </defs>
  <g
     id="layer1">
    <g
       clip-path="url(#clipPath448)"
       id="g1799"
       transform="matrix(0.29104167,0,0,0.29104167,-55.302574,-85.954306)">
      <path
         d="m 142.512,221.5 h 72.289 v 15 h -72.289 z"
         style="fill:#778899;fill-opacity:1;fill-rule:nonzero;stroke:none"
         transform="scale(1.3333333)"
         clip-path="url(#clipPath447)"
         id="path1799" />
    </g>
    <path
       d="m 149.902,232.359 c -0.468,0 -0.882,-0.074 -1.234,-0.218 -0.344,-0.157 -0.617,-0.368 -0.813,-0.641 -0.199,-0.281 -0.308,-0.602 -0.328,-0.969 h 0.844 c 0.031,0.25 0.113,0.461 0.25,0.625 0.145,0.156 0.328,0.274 0.547,0.344 0.227,0.074 0.473,0.109 0.734,0.109 0.289,0 0.551,-0.047 0.782,-0.14 0.238,-0.094 0.425,-0.227 0.562,-0.407 0.145,-0.175 0.219,-0.378 0.219,-0.609 0,-0.207 -0.063,-0.379 -0.188,-0.515 -0.117,-0.133 -0.273,-0.243 -0.468,-0.329 -0.2,-0.082 -0.414,-0.156 -0.641,-0.218 l -0.797,-0.219 c -0.523,-0.156 -0.933,-0.367 -1.234,-0.641 -0.293,-0.281 -0.438,-0.64 -0.438,-1.078 0,-0.363 0.098,-0.68 0.297,-0.953 0.207,-0.281 0.477,-0.5 0.813,-0.656 0.343,-0.156 0.722,-0.235 1.14,-0.235 0.438,0 0.817,0.079 1.141,0.235 0.332,0.156 0.594,0.367 0.781,0.625 0.195,0.261 0.301,0.558 0.313,0.89 h -0.813 c -0.043,-0.32 -0.199,-0.566 -0.469,-0.734 -0.261,-0.176 -0.586,-0.266 -0.968,-0.266 -0.282,0 -0.532,0.047 -0.75,0.141 -0.211,0.086 -0.375,0.211 -0.5,0.375 -0.118,0.156 -0.172,0.34 -0.172,0.547 0,0.23 0.07,0.414 0.218,0.547 0.145,0.136 0.313,0.246 0.5,0.328 0.196,0.074 0.375,0.133 0.532,0.172 l 0.656,0.187 c 0.176,0.043 0.367,0.106 0.578,0.188 0.219,0.086 0.422,0.195 0.609,0.328 0.196,0.137 0.36,0.312 0.485,0.531 0.125,0.211 0.187,0.465 0.187,0.766 0,0.355 -0.093,0.679 -0.281,0.969 -0.187,0.281 -0.461,0.507 -0.812,0.671 -0.356,0.164 -0.782,0.25 -1.282,0.25 z m 5.246,-0.047 c -0.336,0 -0.625,-0.066 -0.875,-0.203 -0.25,-0.132 -0.449,-0.336 -0.593,-0.609 -0.137,-0.281 -0.203,-0.629 -0.203,-1.047 v -3.109 h 0.796 v 3.047 c 0,0.375 0.098,0.671 0.297,0.89 0.196,0.211 0.469,0.313 0.813,0.313 0.238,0 0.445,-0.047 0.625,-0.141 0.187,-0.101 0.332,-0.254 0.437,-0.453 0.114,-0.195 0.172,-0.438 0.172,-0.719 v -2.937 h 0.797 v 4.906 h -0.766 v -1.188 h 0.11 c -0.156,0.461 -0.375,0.782 -0.656,0.969 -0.274,0.188 -0.59,0.281 -0.954,0.281 z m 5.934,0.047 c -0.305,0 -0.555,-0.054 -0.75,-0.156 -0.187,-0.113 -0.336,-0.238 -0.437,-0.375 -0.106,-0.133 -0.184,-0.25 -0.235,-0.344 h -0.094 v 0.766 h -0.765 v -6.547 h 0.797 v 2.422 h 0.062 c 0.051,-0.094 0.125,-0.203 0.219,-0.328 0.101,-0.133 0.25,-0.254 0.437,-0.359 0.188,-0.102 0.442,-0.157 0.766,-0.157 0.414,0 0.773,0.106 1.078,0.313 0.313,0.199 0.555,0.492 0.735,0.875 0.175,0.375 0.265,0.824 0.265,1.343 0,0.524 -0.09,0.977 -0.265,1.36 -0.168,0.375 -0.407,0.668 -0.719,0.875 -0.313,0.207 -0.68,0.312 -1.094,0.312 z m -0.109,-0.718 c 0.3,0 0.554,-0.079 0.765,-0.235 0.207,-0.164 0.364,-0.39 0.469,-0.672 0.102,-0.281 0.156,-0.593 0.156,-0.937 0,-0.344 -0.054,-0.649 -0.156,-0.922 -0.105,-0.27 -0.262,-0.484 -0.469,-0.641 -0.199,-0.164 -0.453,-0.25 -0.765,-0.25 -0.305,0 -0.559,0.078 -0.766,0.235 -0.211,0.148 -0.367,0.355 -0.469,0.625 -0.093,0.273 -0.14,0.59 -0.14,0.953 0,0.367 0.05,0.687 0.156,0.969 0.101,0.273 0.254,0.484 0.453,0.64 0.207,0.156 0.461,0.235 0.766,0.235 z m 5.011,0.718 c -0.336,0 -0.632,-0.047 -0.89,-0.14 -0.262,-0.102 -0.481,-0.25 -0.656,-0.438 -0.168,-0.195 -0.282,-0.437 -0.344,-0.719 l 0.75,-0.187 c 0.07,0.273 0.207,0.469 0.406,0.594 0.195,0.125 0.441,0.187 0.734,0.187 0.344,0 0.614,-0.07 0.813,-0.218 0.207,-0.145 0.312,-0.317 0.312,-0.516 0,-0.176 -0.062,-0.317 -0.187,-0.422 -0.117,-0.113 -0.293,-0.203 -0.531,-0.266 l -0.829,-0.187 c -0.437,-0.102 -0.765,-0.266 -0.984,-0.485 -0.219,-0.226 -0.328,-0.515 -0.328,-0.859 0,-0.281 0.078,-0.523 0.234,-0.734 0.157,-0.219 0.368,-0.383 0.641,-0.5 0.281,-0.125 0.594,-0.188 0.937,-0.188 0.344,0 0.629,0.055 0.86,0.157 0.238,0.093 0.43,0.23 0.578,0.406 0.145,0.179 0.254,0.383 0.328,0.609 l -0.703,0.188 c -0.074,-0.176 -0.187,-0.332 -0.344,-0.469 -0.156,-0.145 -0.39,-0.219 -0.703,-0.219 -0.293,0 -0.539,0.07 -0.734,0.203 -0.199,0.137 -0.297,0.305 -0.297,0.5 0,0.188 0.062,0.34 0.187,0.453 0.133,0.106 0.348,0.188 0.641,0.25 l 0.75,0.172 c 0.437,0.117 0.758,0.281 0.969,0.5 0.218,0.219 0.328,0.496 0.328,0.828 0,0.293 -0.086,0.555 -0.25,0.782 -0.156,0.218 -0.383,0.398 -0.672,0.531 -0.293,0.125 -0.633,0.187 -1.016,0.187 z m 3,1.672 0.204,-0.687 0.093,0.015 c 0.157,0.039 0.297,0.051 0.422,0.032 0.133,-0.012 0.254,-0.075 0.359,-0.188 0.114,-0.117 0.208,-0.289 0.282,-0.515 l 0.14,-0.407 -1.875,-4.937 h 0.875 l 1.047,2.906 c 0.102,0.305 0.192,0.605 0.266,0.906 0.082,0.305 0.164,0.594 0.25,0.875 h -0.297 c 0.094,-0.281 0.176,-0.57 0.25,-0.875 0.082,-0.301 0.176,-0.601 0.281,-0.906 l 1.047,-2.906 h 0.875 l -2.172,5.64 c -0.093,0.258 -0.215,0.473 -0.359,0.641 -0.137,0.164 -0.297,0.289 -0.484,0.375 -0.18,0.082 -0.383,0.125 -0.61,0.125 -0.148,0 -0.273,-0.012 -0.375,-0.031 -0.105,-0.024 -0.18,-0.043 -0.219,-0.063 z m 6.813,-1.672 c -0.336,0 -0.633,-0.047 -0.891,-0.14 -0.261,-0.102 -0.48,-0.25 -0.656,-0.438 -0.168,-0.195 -0.281,-0.437 -0.344,-0.719 l 0.75,-0.187 c 0.071,0.273 0.207,0.469 0.406,0.594 0.196,0.125 0.442,0.187 0.735,0.187 0.344,0 0.613,-0.07 0.812,-0.218 0.207,-0.145 0.313,-0.317 0.313,-0.516 0,-0.176 -0.063,-0.317 -0.188,-0.422 -0.117,-0.113 -0.293,-0.203 -0.531,-0.266 l -0.828,-0.187 c -0.437,-0.102 -0.766,-0.266 -0.984,-0.485 -0.219,-0.226 -0.329,-0.515 -0.329,-0.859 0,-0.281 0.079,-0.523 0.235,-0.734 0.156,-0.219 0.367,-0.383 0.641,-0.5 0.281,-0.125 0.593,-0.188 0.937,-0.188 0.344,0 0.629,0.055 0.859,0.157 0.239,0.093 0.43,0.23 0.578,0.406 0.145,0.179 0.254,0.383 0.329,0.609 l -0.703,0.188 c -0.075,-0.176 -0.188,-0.332 -0.344,-0.469 -0.156,-0.145 -0.391,-0.219 -0.703,-0.219 -0.293,0 -0.539,0.07 -0.735,0.203 -0.199,0.137 -0.297,0.305 -0.297,0.5 0,0.188 0.063,0.34 0.188,0.453 0.133,0.106 0.348,0.188 0.641,0.25 l 0.75,0.172 c 0.437,0.117 0.757,0.281 0.968,0.5 0.219,0.219 0.328,0.496 0.328,0.828 0,0.293 -0.086,0.555 -0.25,0.782 -0.156,0.218 -0.382,0.398 -0.672,0.531 -0.292,0.125 -0.632,0.187 -1.015,0.187 z m 5.015,-5.015 v 0.672 h -2.531 v -0.672 z m -1.796,-1.172 h 0.796 v 4.797 c 0,0.23 0.04,0.398 0.126,0.5 0.093,0.093 0.242,0.14 0.453,0.14 0.039,0 0.097,-0.004 0.171,-0.015 0.083,-0.008 0.161,-0.02 0.235,-0.032 l 0.156,0.657 c -0.086,0.031 -0.18,0.051 -0.281,0.062 -0.106,0.02 -0.211,0.031 -0.313,0.031 -0.429,0 -0.761,-0.109 -1,-0.328 -0.23,-0.226 -0.343,-0.546 -0.343,-0.953 z m 4.8,6.187 c -0.48,0 -0.89,-0.105 -1.234,-0.312 -0.344,-0.219 -0.609,-0.516 -0.797,-0.891 -0.187,-0.375 -0.281,-0.816 -0.281,-1.328 0,-0.5 0.086,-0.941 0.266,-1.328 0.187,-0.383 0.445,-0.68 0.781,-0.891 0.332,-0.218 0.722,-0.328 1.172,-0.328 0.257,0 0.515,0.043 0.765,0.125 0.25,0.086 0.477,0.227 0.688,0.422 0.207,0.188 0.375,0.438 0.5,0.75 0.125,0.313 0.187,0.699 0.187,1.156 v 0.328 h -3.812 v -0.671 h 3.375 l -0.36,0.25 c 0,-0.321 -0.054,-0.61 -0.156,-0.86 -0.105,-0.25 -0.258,-0.441 -0.453,-0.578 -0.199,-0.144 -0.445,-0.219 -0.734,-0.219 -0.305,0 -0.559,0.075 -0.766,0.219 -0.211,0.137 -0.371,0.324 -0.484,0.563 -0.118,0.23 -0.172,0.48 -0.172,0.75 v 0.437 c 0,0.367 0.062,0.68 0.187,0.938 0.133,0.25 0.313,0.445 0.532,0.578 0.226,0.125 0.492,0.187 0.796,0.187 0.188,0 0.36,-0.023 0.516,-0.078 0.164,-0.062 0.305,-0.148 0.422,-0.266 0.113,-0.113 0.203,-0.253 0.266,-0.421 l 0.765,0.218 c -0.086,0.243 -0.219,0.453 -0.406,0.641 -0.18,0.188 -0.402,0.34 -0.672,0.453 -0.262,0.102 -0.559,0.156 -0.891,0.156 z m 3.172,-0.109 v -4.906 h 0.782 v 1.094 h -0.063 c 0.063,-0.27 0.164,-0.489 0.313,-0.657 0.144,-0.176 0.316,-0.304 0.515,-0.39 0.195,-0.094 0.399,-0.141 0.61,-0.141 0.351,0 0.64,0.109 0.859,0.328 0.226,0.219 0.375,0.508 0.437,0.86 h -0.109 c 0.063,-0.239 0.172,-0.446 0.328,-0.626 0.156,-0.187 0.344,-0.328 0.563,-0.421 0.218,-0.094 0.457,-0.141 0.718,-0.141 0.289,0 0.551,0.062 0.782,0.188 0.226,0.124 0.41,0.312 0.547,0.562 0.144,0.242 0.218,0.555 0.218,0.938 v 3.312 h -0.797 v -3.297 c 0,-0.351 -0.101,-0.601 -0.296,-0.75 -0.2,-0.156 -0.43,-0.234 -0.688,-0.234 -0.219,0 -0.414,0.047 -0.578,0.14 -0.156,0.094 -0.277,0.227 -0.359,0.391 -0.086,0.156 -0.125,0.34 -0.125,0.547 v 3.203 h -0.797 v -3.375 c 0,-0.27 -0.094,-0.488 -0.282,-0.656 -0.179,-0.164 -0.406,-0.25 -0.687,-0.25 -0.188,0 -0.367,0.047 -0.531,0.14 -0.168,0.086 -0.305,0.215 -0.407,0.391 -0.105,0.18 -0.156,0.398 -0.156,0.656 v 3.094 z m 8.496,0.062 c -0.168,0 -0.308,-0.058 -0.422,-0.171 -0.117,-0.125 -0.171,-0.266 -0.171,-0.422 0,-0.164 0.054,-0.305 0.171,-0.422 0.114,-0.113 0.254,-0.172 0.422,-0.172 0.157,0 0.289,0.059 0.407,0.172 0.125,0.117 0.187,0.258 0.187,0.422 0,0.156 -0.062,0.297 -0.187,0.422 -0.118,0.113 -0.25,0.171 -0.407,0.171 z m 0,-3.562 c -0.168,0 -0.308,-0.055 -0.422,-0.172 -0.117,-0.125 -0.171,-0.266 -0.171,-0.422 0,-0.164 0.054,-0.304 0.171,-0.422 0.114,-0.113 0.254,-0.172 0.422,-0.172 0.157,0 0.289,0.059 0.407,0.172 0.125,0.118 0.187,0.258 0.187,0.422 0,0.156 -0.062,0.297 -0.187,0.422 -0.118,0.117 -0.25,0.172 -0.407,0.172 z m 2.774,0.562 v 2.938 h -0.797 v -4.906 h 0.766 v 1.187 h -0.11 c 0.156,-0.457 0.367,-0.781 0.641,-0.969 0.281,-0.187 0.609,-0.281 0.984,-0.281 0.32,0 0.61,0.071 0.86,0.203 0.25,0.137 0.441,0.34 0.578,0.61 0.144,0.273 0.218,0.617 0.218,1.031 v 3.125 h -0.796 v -3.047 c 0,-0.383 -0.102,-0.68 -0.297,-0.891 -0.2,-0.218 -0.469,-0.328 -0.813,-0.328 -0.23,0 -0.437,0.055 -0.625,0.157 -0.187,0.105 -0.34,0.257 -0.453,0.453 -0.105,0.199 -0.156,0.437 -0.156,0.718 z m 6.609,3.047 c -0.48,0 -0.89,-0.105 -1.234,-0.312 -0.344,-0.219 -0.61,-0.516 -0.797,-0.891 -0.188,-0.375 -0.281,-0.816 -0.281,-1.328 0,-0.5 0.086,-0.941 0.265,-1.328 0.188,-0.383 0.446,-0.68 0.782,-0.891 0.332,-0.218 0.722,-0.328 1.171,-0.328 0.258,0 0.516,0.043 0.766,0.125 0.25,0.086 0.477,0.227 0.688,0.422 0.207,0.188 0.375,0.438 0.5,0.75 0.125,0.313 0.187,0.699 0.187,1.156 v 0.328 h -3.812 v -0.671 h 3.375 l -0.36,0.25 c 0,-0.321 -0.055,-0.61 -0.156,-0.86 -0.106,-0.25 -0.258,-0.441 -0.453,-0.578 -0.199,-0.144 -0.446,-0.219 -0.735,-0.219 -0.304,0 -0.558,0.075 -0.765,0.219 -0.211,0.137 -0.371,0.324 -0.485,0.563 -0.117,0.23 -0.171,0.48 -0.171,0.75 v 0.437 c 0,0.367 0.062,0.68 0.187,0.938 0.133,0.25 0.313,0.445 0.531,0.578 0.227,0.125 0.492,0.187 0.797,0.187 0.188,0 0.36,-0.023 0.516,-0.078 0.164,-0.062 0.305,-0.148 0.422,-0.266 0.113,-0.113 0.203,-0.253 0.265,-0.421 l 0.766,0.218 c -0.086,0.243 -0.219,0.453 -0.406,0.641 -0.18,0.188 -0.403,0.34 -0.672,0.453 -0.262,0.102 -0.559,0.156 -0.891,0.156 z m 5.11,-5.015 v 0.672 h -2.532 v -0.672 z m -1.797,-1.172 h 0.797 v 4.797 c 0,0.23 0.039,0.398 0.125,0.5 0.093,0.093 0.242,0.14 0.453,0.14 0.039,0 0.097,-0.004 0.172,-0.015 0.082,-0.008 0.16,-0.02 0.234,-0.032 l 0.156,0.657 c -0.086,0.031 -0.179,0.051 -0.281,0.062 -0.106,0.02 -0.211,0.031 -0.313,0.031 -0.429,0 -0.761,-0.109 -1,-0.328 -0.23,-0.226 -0.343,-0.546 -0.343,-0.953 z"
       style="fill:#ffffff;fill-opacity:1;fill-rule:nonzero;stroke:none"
       transform="matrix(0.38805555,0,0,0.38805555,-55.302574,-85.954306)"
       clip-path="url(#clipPath449)"
       id="path1800" />
  </g>
</svg>
