<?xml version="1.0" encoding="UTF-8" standalone="no"?>
<!-- Created with Inkscape (http://www.inkscape.org/) -->

<svg
   width="37.092678mm"
   height="5.8208332mm"
   viewBox="0 0 37.092678 5.8208332"
   version="1.1"
   id="svg1"
   xmlns="http://www.w3.org/2000/svg"
   xmlns:svg="http://www.w3.org/2000/svg">
  <defs
     id="defs1">
    <clipPath
       clipPathUnits="userSpaceOnUse"
       id="clipPath402">
      <path
         d="M 0,0 H 842 V 1191 H 0 Z"
         transform="scale(1.3333333)"
         id="path402" />
    </clipPath>
    <clipPath
       clipPathUnits="userSpaceOnUse"
       id="clipPath401">
      <path
         d="M 145.414,203.5 H 226 c 4.141,0 7.5,3.359 7.5,7.5 0,4.141 -3.359,7.5 -7.5,7.5 h -80.586 c -4.141,0 -7.5,-3.359 -7.5,-7.5 0,-4.141 3.359,-7.5 7.5,-7.5 z"
         id="path401" />
    </clipPath>
    <clipPath
       clipPathUnits="userSpaceOnUse"
       id="clipPath404">
      <path
         d="M 0,0 H 842 V 1191 H 0 Z"
         transform="scale(1.3333333)"
         id="path404" />
    </clipPath>
    <clipPath
       clipPathUnits="userSpaceOnUse"
       id="clipPath403">
      <path
         d="M 145.5,203.5 H 226 c 4.141,0 7.5,3.359 7.5,7.5 0,4.141 -3.359,7.5 -7.5,7.5 h -80.5 c -4.141,0 -7.5,-3.359 -7.5,-7.5 0,-4.141 3.359,-7.5 7.5,-7.5 z"
         id="path403" />
    </clipPath>
    <clipPath
       clipPathUnits="userSpaceOnUse"
       id="clipPath406">
      <path
         d="M 0,0 H 842 V 1191 H 0 Z"
         transform="scale(1.3333333)"
         id="path406" />
    </clipPath>
    <clipPath
       clipPathUnits="userSpaceOnUse"
       id="clipPath405">
      <path
         d="M 145.414,203.5 H 226 c 4.141,0 7.5,3.359 7.5,7.5 0,4.141 -3.359,7.5 -7.5,7.5 h -80.586 c -4.141,0 -7.5,-3.359 -7.5,-7.5 0,-4.141 3.359,-7.5 7.5,-7.5 z"
         id="path405" />
    </clipPath>
    <clipPath
       clipPathUnits="userSpaceOnUse"
       id="clipPath407">
      <path
         d="M 0,0 H 842 V 1191 H 0 Z"
         id="path407" />
    </clipPath>
    <clipPath
       clipPathUnits="userSpaceOnUse"
       id="clipPath408">
      <path
         d="M 0,0 H 842 V 1191 H 0 Z"
         id="path408" />
    </clipPath>
  </defs>
  <g
     id="layer1">
    <g
       clip-path="url(#clipPath402)"
       id="g1770"
       transform="matrix(0.29104167,0,0,0.29104167,-53.518294,-78.969305)">
      <path
         d="M 137.914,203.5 H 233.5 v 15 h -95.586 z"
         style="fill:#ffffff;fill-opacity:1;fill-rule:nonzero;stroke:none"
         transform="scale(1.3333333)"
         clip-path="url(#clipPath401)"
         id="path1770" />
    </g>
    <g
       clip-path="url(#clipPath404)"
       id="g1771"
       transform="matrix(0.29104167,0,0,0.29104167,-53.518294,-78.969305)">
      <path
         d="m 137.82062,202.98351 96.35876,0.0598 L 234,219 H 138 Z M 226,205 h -80 c -3.312,0 -6,2.688 -6,6 0,3.312 2.688,6 6,6 h 80 c 3.312,0 6,-2.688 6,-6 0,-3.312 -2.688,-6 -6,-6 z"
         style="fill:#428bca;fill-opacity:1;fill-rule:evenodd;stroke:none"
         transform="scale(1.3333333)"
         clip-path="url(#clipPath403)"
         id="path1771" />
    </g>
    <g
       clip-path="url(#clipPath406)"
       id="g1772"
       transform="matrix(0.29104167,0,0,0.29104167,-53.518294,-78.969305)">
      <path
         d="m 137.914,203.5 h 73.648 v 15 h -73.648 z"
         style="fill:#428bca;fill-opacity:1;fill-rule:nonzero;stroke:none"
         transform="scale(1.3333333)"
         clip-path="url(#clipPath405)"
         id="path1772" />
    </g>
    <path
       d="m 143.211,214.25 v -6.547 h 3.984 v 0.735 h -3.156 v 2.14 h 2.938 v 0.734 h -2.938 v 2.204 h 3.203 v 0.734 z m 4.894,0 1.938,-2.828 v 0.609 l -1.828,-2.687 h 0.922 l 0.609,0.953 c 0.156,0.242 0.289,0.469 0.406,0.687 0.114,0.211 0.235,0.414 0.36,0.61 h -0.407 c 0.125,-0.196 0.239,-0.399 0.344,-0.61 0.102,-0.218 0.235,-0.445 0.391,-0.687 l 0.625,-0.953 h 0.906 l -1.844,2.718 v -0.578 l 1.922,2.766 h -0.922 l -0.718,-1.109 c -0.157,-0.239 -0.293,-0.457 -0.407,-0.657 -0.105,-0.207 -0.218,-0.41 -0.343,-0.609 h 0.421 c -0.125,0.199 -0.242,0.402 -0.343,0.609 -0.094,0.2 -0.227,0.418 -0.391,0.657 l -0.719,1.109 z m 7.434,-4.906 v 0.672 h -2.531 v -0.672 z m -1.797,-1.172 h 0.797 v 4.797 c 0,0.23 0.039,0.398 0.125,0.5 0.094,0.093 0.242,0.14 0.453,0.14 0.039,0 0.098,-0.004 0.172,-0.015 0.082,-0.008 0.16,-0.02 0.234,-0.032 l 0.157,0.657 c -0.086,0.031 -0.18,0.051 -0.282,0.062 -0.105,0.02 -0.21,0.031 -0.312,0.031 -0.43,0 -0.762,-0.109 -1,-0.328 -0.231,-0.226 -0.344,-0.546 -0.344,-0.953 z m 4.797,6.187 c -0.48,0 -0.891,-0.105 -1.234,-0.312 -0.344,-0.219 -0.61,-0.516 -0.797,-0.891 -0.188,-0.375 -0.281,-0.816 -0.281,-1.328 0,-0.5 0.085,-0.941 0.265,-1.328 0.188,-0.383 0.446,-0.68 0.781,-0.891 0.332,-0.218 0.723,-0.328 1.172,-0.328 0.258,0 0.516,0.043 0.766,0.125 0.25,0.086 0.477,0.227 0.687,0.422 0.207,0.188 0.375,0.438 0.5,0.75 0.125,0.313 0.188,0.699 0.188,1.156 v 0.328 h -3.813 v -0.671 h 3.375 l -0.359,0.25 c 0,-0.321 -0.055,-0.61 -0.156,-0.86 -0.106,-0.25 -0.258,-0.441 -0.453,-0.578 -0.2,-0.144 -0.446,-0.219 -0.735,-0.219 -0.304,0 -0.558,0.075 -0.765,0.219 -0.211,0.137 -0.371,0.324 -0.485,0.563 -0.117,0.23 -0.172,0.48 -0.172,0.75 v 0.437 c 0,0.367 0.063,0.68 0.188,0.938 0.133,0.25 0.312,0.445 0.531,0.578 0.227,0.125 0.492,0.187 0.797,0.187 0.188,0 0.359,-0.023 0.516,-0.078 0.164,-0.062 0.304,-0.148 0.422,-0.266 0.113,-0.113 0.203,-0.253 0.265,-0.421 l 0.766,0.218 c -0.086,0.243 -0.219,0.453 -0.406,0.641 -0.18,0.188 -0.403,0.34 -0.672,0.453 -0.262,0.102 -0.559,0.156 -0.891,0.156 z m 3.172,-0.109 v -4.906 h 0.766 v 0.75 h 0.062 c 0.082,-0.25 0.238,-0.446 0.469,-0.594 0.238,-0.156 0.504,-0.234 0.797,-0.234 0.062,0 0.129,0.007 0.203,0.015 0.082,0 0.148,0 0.203,0 v 0.797 c -0.023,-0.008 -0.078,-0.019 -0.172,-0.031 -0.094,-0.008 -0.195,-0.016 -0.297,-0.016 -0.242,0 -0.453,0.055 -0.64,0.157 -0.188,0.093 -0.336,0.23 -0.438,0.406 -0.105,0.168 -0.156,0.359 -0.156,0.578 v 3.078 z m 4.324,-2.938 v 2.938 h -0.797 v -4.906 h 0.766 v 1.187 h -0.109 c 0.156,-0.457 0.367,-0.781 0.64,-0.969 0.281,-0.187 0.61,-0.281 0.985,-0.281 0.32,0 0.609,0.071 0.859,0.203 0.25,0.137 0.441,0.34 0.578,0.61 0.145,0.273 0.219,0.617 0.219,1.031 v 3.125 h -0.797 v -3.047 c 0,-0.383 -0.102,-0.68 -0.297,-0.891 -0.199,-0.218 -0.469,-0.328 -0.812,-0.328 -0.231,0 -0.438,0.055 -0.625,0.157 -0.188,0.105 -0.34,0.257 -0.454,0.453 -0.105,0.199 -0.156,0.437 -0.156,0.718 z m 5.903,3.047 c -0.305,0 -0.586,-0.058 -0.844,-0.171 -0.25,-0.114 -0.453,-0.286 -0.61,-0.516 -0.148,-0.227 -0.218,-0.5 -0.218,-0.813 0,-0.281 0.054,-0.507 0.172,-0.687 0.113,-0.176 0.257,-0.317 0.437,-0.422 0.187,-0.102 0.395,-0.176 0.625,-0.219 0.227,-0.051 0.457,-0.093 0.688,-0.125 0.289,-0.039 0.523,-0.07 0.703,-0.094 0.187,-0.019 0.32,-0.05 0.406,-0.093 0.094,-0.051 0.141,-0.141 0.141,-0.266 v -0.015 c 0,-0.208 -0.04,-0.379 -0.11,-0.516 -0.074,-0.145 -0.187,-0.254 -0.344,-0.328 -0.148,-0.082 -0.336,-0.125 -0.562,-0.125 -0.242,0 -0.445,0.039 -0.61,0.109 -0.167,0.074 -0.304,0.168 -0.406,0.281 -0.105,0.106 -0.183,0.215 -0.234,0.329 l -0.766,-0.25 c 0.125,-0.301 0.289,-0.536 0.5,-0.704 0.219,-0.164 0.457,-0.281 0.719,-0.343 0.258,-0.071 0.516,-0.11 0.766,-0.11 0.164,0 0.351,0.024 0.562,0.063 0.207,0.031 0.41,0.109 0.609,0.234 0.196,0.117 0.36,0.289 0.485,0.516 0.125,0.23 0.187,0.539 0.187,0.922 v 3.234 h -0.781 v -0.672 h -0.047 c -0.054,0.117 -0.14,0.234 -0.265,0.36 -0.125,0.124 -0.289,0.23 -0.485,0.312 -0.199,0.07 -0.437,0.109 -0.718,0.109 z m 0.14,-0.687 c 0.289,0 0.535,-0.055 0.734,-0.172 0.208,-0.113 0.364,-0.266 0.469,-0.453 0.102,-0.188 0.157,-0.379 0.157,-0.578 v -0.672 c -0.032,0.031 -0.106,0.062 -0.219,0.094 -0.106,0.031 -0.227,0.062 -0.36,0.093 -0.136,0.024 -0.273,0.043 -0.406,0.063 -0.125,0.012 -0.23,0.023 -0.312,0.031 -0.188,0.024 -0.368,0.063 -0.532,0.125 -0.168,0.055 -0.304,0.137 -0.406,0.25 -0.094,0.106 -0.141,0.25 -0.141,0.438 0,0.168 0.04,0.308 0.126,0.421 0.093,0.118 0.21,0.204 0.359,0.266 0.156,0.063 0.332,0.094 0.531,0.094 z m 4.645,0.609 c -0.368,0 -0.641,-0.097 -0.828,-0.297 -0.188,-0.195 -0.282,-0.472 -0.282,-0.828 v -5.453 h 0.797 v 5.266 c 0,0.219 0.024,0.375 0.078,0.469 0.051,0.093 0.16,0.14 0.328,0.14 0.082,0 0.145,0 0.188,0 0.051,-0.008 0.094,-0.019 0.125,-0.031 l 0.172,0.656 c -0.074,0.024 -0.164,0.039 -0.266,0.047 -0.105,0.02 -0.211,0.031 -0.312,0.031 z m 4.113,0.063 c -0.555,0 -1.055,-0.133 -1.5,-0.406 -0.438,-0.27 -0.781,-0.657 -1.031,-1.157 -0.25,-0.508 -0.375,-1.109 -0.375,-1.797 0,-0.695 0.125,-1.296 0.375,-1.796 0.25,-0.5 0.593,-0.883 1.031,-1.157 0.445,-0.281 0.945,-0.422 1.5,-0.422 0.332,0 0.644,0.055 0.937,0.157 0.301,0.093 0.567,0.234 0.797,0.422 0.239,0.187 0.438,0.414 0.594,0.671 0.156,0.262 0.258,0.563 0.313,0.907 h -0.829 c -0.054,-0.227 -0.136,-0.426 -0.25,-0.594 -0.105,-0.164 -0.242,-0.305 -0.406,-0.422 -0.168,-0.125 -0.351,-0.211 -0.547,-0.266 -0.187,-0.062 -0.39,-0.093 -0.609,-0.093 -0.387,0 -0.742,0.101 -1.063,0.297 -0.312,0.199 -0.562,0.492 -0.75,0.874 -0.187,0.387 -0.281,0.86 -0.281,1.422 0,0.555 0.094,1.024 0.281,1.407 0.188,0.386 0.438,0.679 0.75,0.875 0.321,0.199 0.676,0.296 1.063,0.296 0.219,0 0.422,-0.023 0.609,-0.078 0.196,-0.062 0.379,-0.148 0.547,-0.265 0.164,-0.125 0.301,-0.27 0.406,-0.438 0.114,-0.176 0.196,-0.375 0.25,-0.593 h 0.829 c -0.055,0.335 -0.157,0.636 -0.313,0.906 -0.156,0.261 -0.355,0.484 -0.594,0.672 -0.23,0.187 -0.496,0.336 -0.797,0.437 -0.293,0.094 -0.605,0.141 -0.937,0.141 z m 4.766,-6.641 v 6.547 h -0.829 v -6.547 z m 2.082,6.609 c -0.168,0 -0.309,-0.058 -0.422,-0.171 -0.117,-0.125 -0.172,-0.266 -0.172,-0.422 0,-0.164 0.055,-0.305 0.172,-0.422 0.113,-0.113 0.254,-0.172 0.422,-0.172 0.156,0 0.289,0.059 0.406,0.172 0.125,0.117 0.187,0.258 0.187,0.422 0,0.156 -0.062,0.297 -0.187,0.422 -0.117,0.113 -0.25,0.171 -0.406,0.171 z m 0,-3.562 c -0.168,0 -0.309,-0.055 -0.422,-0.172 -0.117,-0.125 -0.172,-0.266 -0.172,-0.422 0,-0.164 0.055,-0.304 0.172,-0.422 0.113,-0.113 0.254,-0.172 0.422,-0.172 0.156,0 0.289,0.059 0.406,0.172 0.125,0.118 0.187,0.258 0.187,0.422 0,0.156 -0.062,0.297 -0.187,0.422 -0.117,0.117 -0.25,0.172 -0.406,0.172 z m 2.589,3.562 c -0.168,0 -0.308,-0.058 -0.421,-0.171 -0.118,-0.125 -0.172,-0.266 -0.172,-0.422 0,-0.164 0.054,-0.305 0.172,-0.422 0.113,-0.113 0.253,-0.172 0.421,-0.172 0.157,0 0.289,0.059 0.407,0.172 0.125,0.117 0.187,0.258 0.187,0.422 0,0.156 -0.062,0.297 -0.187,0.422 -0.118,0.113 -0.25,0.171 -0.407,0.171 z m 0,-3.562 c -0.168,0 -0.308,-0.055 -0.421,-0.172 -0.118,-0.125 -0.172,-0.266 -0.172,-0.422 0,-0.164 0.054,-0.304 0.172,-0.422 0.113,-0.113 0.253,-0.172 0.421,-0.172 0.157,0 0.289,0.059 0.407,0.172 0.125,0.118 0.187,0.258 0.187,0.422 0,0.156 -0.062,0.297 -0.187,0.422 -0.118,0.117 -0.25,0.172 -0.407,0.172 z m 3.086,3.531 c -0.367,0 -0.64,-0.097 -0.828,-0.297 -0.187,-0.195 -0.281,-0.472 -0.281,-0.828 v -5.453 h 0.797 v 5.266 c 0,0.219 0.023,0.375 0.078,0.469 0.051,0.093 0.16,0.14 0.328,0.14 0.082,0 0.145,0 0.188,0 0.05,-0.008 0.093,-0.019 0.125,-0.031 l 0.172,0.656 c -0.075,0.024 -0.165,0.039 -0.266,0.047 -0.106,0.02 -0.211,0.031 -0.313,0.031 z m 2.164,-2.969 v 2.938 h -0.796 v -4.906 h 0.765 v 1.187 h -0.109 c 0.156,-0.457 0.367,-0.781 0.64,-0.969 0.282,-0.187 0.61,-0.281 0.985,-0.281 0.32,0 0.609,0.071 0.859,0.203 0.25,0.137 0.442,0.34 0.578,0.61 0.145,0.273 0.219,0.617 0.219,1.031 v 3.125 h -0.797 v -3.047 c 0,-0.383 -0.101,-0.68 -0.297,-0.891 -0.199,-0.218 -0.468,-0.328 -0.812,-0.328 -0.231,0 -0.438,0.055 -0.625,0.157 -0.188,0.105 -0.34,0.257 -0.453,0.453 -0.106,0.199 -0.157,0.437 -0.157,0.718 z m 6.2,3.047 c -0.336,0 -0.633,-0.047 -0.891,-0.14 -0.262,-0.102 -0.48,-0.25 -0.656,-0.438 -0.168,-0.195 -0.281,-0.437 -0.344,-0.719 l 0.75,-0.187 c 0.07,0.273 0.207,0.469 0.406,0.594 0.196,0.125 0.442,0.187 0.735,0.187 0.343,0 0.613,-0.07 0.812,-0.218 0.207,-0.145 0.313,-0.317 0.313,-0.516 0,-0.176 -0.063,-0.317 -0.188,-0.422 -0.117,-0.113 -0.293,-0.203 -0.531,-0.266 l -0.828,-0.187 c -0.438,-0.102 -0.766,-0.266 -0.985,-0.485 -0.218,-0.226 -0.328,-0.515 -0.328,-0.859 0,-0.281 0.078,-0.523 0.235,-0.734 0.156,-0.219 0.367,-0.383 0.64,-0.5 0.282,-0.125 0.594,-0.188 0.938,-0.188 0.344,0 0.629,0.055 0.859,0.157 0.238,0.093 0.43,0.23 0.578,0.406 0.145,0.179 0.254,0.383 0.328,0.609 l -0.703,0.188 c -0.074,-0.176 -0.187,-0.332 -0.343,-0.469 -0.157,-0.145 -0.391,-0.219 -0.704,-0.219 -0.293,0 -0.539,0.07 -0.734,0.203 -0.199,0.137 -0.297,0.305 -0.297,0.5 0,0.188 0.063,0.34 0.188,0.453 0.132,0.106 0.347,0.188 0.64,0.25 l 0.75,0.172 c 0.438,0.117 0.758,0.281 0.969,0.5 0.219,0.219 0.328,0.496 0.328,0.828 0,0.293 -0.086,0.555 -0.25,0.782 -0.156,0.218 -0.383,0.398 -0.672,0.531 -0.293,0.125 -0.633,0.187 -1.015,0.187 z m 5.015,-5.015 v 0.672 h -2.531 v -0.672 z m -1.797,-1.172 h 0.797 v 4.797 c 0,0.23 0.039,0.398 0.125,0.5 0.094,0.093 0.242,0.14 0.453,0.14 0.039,0 0.098,-0.004 0.172,-0.015 0.082,-0.008 0.16,-0.02 0.235,-0.032 l 0.156,0.657 c -0.086,0.031 -0.18,0.051 -0.281,0.062 -0.106,0.02 -0.211,0.031 -0.313,0.031 -0.43,0 -0.762,-0.109 -1,-0.328 -0.23,-0.226 -0.344,-0.546 -0.344,-0.953 z"
       style="fill:#ffffff;fill-opacity:1;fill-rule:nonzero;stroke:none"
       transform="matrix(0.38805555,0,0,0.38805555,-53.518294,-78.969305)"
       clip-path="url(#clipPath407)"
       id="path1773" />
    <path
       d="m 218.016,214.344 c -0.563,0 -1.063,-0.133 -1.5,-0.406 -0.438,-0.27 -0.789,-0.657 -1.047,-1.157 -0.25,-0.508 -0.375,-1.109 -0.375,-1.797 0,-0.695 0.125,-1.296 0.375,-1.796 0.258,-0.5 0.609,-0.883 1.047,-1.157 0.437,-0.281 0.937,-0.422 1.5,-0.422 0.55,0 1.046,0.141 1.484,0.422 0.438,0.274 0.781,0.657 1.031,1.157 0.25,0.5 0.375,1.101 0.375,1.796 0,0.688 -0.125,1.289 -0.375,1.797 -0.25,0.5 -0.593,0.887 -1.031,1.157 -0.438,0.273 -0.934,0.406 -1.484,0.406 z m 0,-0.782 c 0.382,0 0.734,-0.097 1.046,-0.296 0.313,-0.196 0.563,-0.489 0.75,-0.875 0.188,-0.383 0.282,-0.852 0.282,-1.407 0,-0.562 -0.094,-1.035 -0.282,-1.422 -0.187,-0.382 -0.437,-0.675 -0.75,-0.874 -0.312,-0.196 -0.664,-0.297 -1.046,-0.297 -0.399,0 -0.758,0.101 -1.078,0.297 -0.313,0.199 -0.563,0.492 -0.75,0.874 -0.188,0.387 -0.282,0.86 -0.282,1.422 0,0.555 0.094,1.024 0.282,1.407 0.187,0.386 0.437,0.679 0.75,0.875 0.32,0.199 0.679,0.296 1.078,0.296 z m 4.793,-1.187 v -0.891 c 0.156,-0.207 0.304,-0.406 0.453,-0.593 0.144,-0.188 0.297,-0.368 0.453,-0.547 0.156,-0.176 0.316,-0.352 0.484,-0.532 l 1.953,-2.109 h 1.094 l -2.797,3 -0.047,-0.015 z m -0.563,1.875 v -6.547 h 0.828 v 2.235 l -0.015,1.421 0.015,0.407 v 2.484 z m 4.016,0 -2.375,-3.328 0.515,-0.656 2.844,3.984 z"
       style="fill:#1f1e24;fill-opacity:1;fill-rule:nonzero;stroke:none"
       transform="matrix(0.38805555,0,0,0.38805555,-53.518294,-78.969305)"
       clip-path="url(#clipPath408)"
       id="path1774" />
  </g>
</svg>
