<?xml version="1.0" encoding="UTF-8" standalone="no"?>
<!-- Created with Inkscape (http://www.inkscape.org/) -->

<svg
   width="46.535671mm"
   height="5.8208385mm"
   viewBox="0 0 46.535671 5.8208384"
   version="1.1"
   id="svg1"
   xmlns="http://www.w3.org/2000/svg"
   xmlns:svg="http://www.w3.org/2000/svg">
  <defs
     id="defs1">
    <clipPath
       clipPathUnits="userSpaceOnUse"
       id="clipPath565">
      <path
         d="M 0,0 H 842 V 1191 H 0 Z"
         transform="scale(1.3333333)"
         id="path565" />
    </clipPath>
    <clipPath
       clipPathUnits="userSpaceOnUse"
       id="clipPath564">
      <path
         d="m 67.5,321.75 h 104.938 c 4.14,0 7.5,3.359 7.5,7.5 0,4.141 -3.36,7.5 -7.5,7.5 H 67.5 c -4.141,0 -7.5,-3.359 -7.5,-7.5 0,-4.141 3.359,-7.5 7.5,-7.5 z"
         id="path564" />
    </clipPath>
    <clipPath
       clipPathUnits="userSpaceOnUse"
       id="clipPath567">
      <path
         d="M 0,0 H 842 V 1191 H 0 Z"
         transform="scale(1.3333333)"
         id="path567" />
    </clipPath>
    <clipPath
       clipPathUnits="userSpaceOnUse"
       id="clipPath566">
      <path
         d="m 67.5,322 h 105 c 4.141,0 7.5,3.359 7.5,7.5 0,4.141 -3.359,7.5 -7.5,7.5 h -105 c -4.141,0 -7.5,-3.359 -7.5,-7.5 0,-4.141 3.359,-7.5 7.5,-7.5 z"
         id="path566" />
    </clipPath>
    <clipPath
       clipPathUnits="userSpaceOnUse"
       id="clipPath569">
      <path
         d="M 0,0 H 842 V 1191 H 0 Z"
         transform="scale(1.3333333)"
         id="path569" />
    </clipPath>
    <clipPath
       clipPathUnits="userSpaceOnUse"
       id="clipPath568">
      <path
         d="m 67.5,321.75 h 104.938 c 4.14,0 7.5,3.359 7.5,7.5 0,4.141 -3.36,7.5 -7.5,7.5 H 67.5 c -4.141,0 -7.5,-3.359 -7.5,-7.5 0,-4.141 3.359,-7.5 7.5,-7.5 z"
         id="path568" />
    </clipPath>
    <clipPath
       clipPathUnits="userSpaceOnUse"
       id="clipPath570">
      <path
         d="M 0,0 H 842 V 1191 H 0 Z"
         id="path570" />
    </clipPath>
    <clipPath
       clipPathUnits="userSpaceOnUse"
       id="clipPath571">
      <path
         d="M 0,0 H 842 V 1191 H 0 Z"
         id="path571" />
    </clipPath>
    <clipPath
       clipPathUnits="userSpaceOnUse"
       id="clipPath573">
      <path
         d="M 0,0 H 842 V 1191 H 0 Z"
         transform="scale(1.3333333)"
         id="path573" />
    </clipPath>
    <clipPath
       clipPathUnits="userSpaceOnUse"
       id="clipPath572">
      <path
         d="m 190.438,321.75 h 125.613 c 4.137,0 7.5,3.359 7.5,7.5 0,4.141 -3.363,7.5 -7.5,7.5 H 190.438 c -4.141,0 -7.5,-3.359 -7.5,-7.5 0,-4.141 3.359,-7.5 7.5,-7.5 z"
         id="path572" />
    </clipPath>
    <clipPath
       clipPathUnits="userSpaceOnUse"
       id="clipPath575">
      <path
         d="M 0,0 H 842 V 1191 H 0 Z"
         transform="scale(1.3333333)"
         id="path575" />
    </clipPath>
    <clipPath
       clipPathUnits="userSpaceOnUse"
       id="clipPath574">
      <path
         d="M 190.5,322 H 316 c 4.141,0 7.5,3.359 7.5,7.5 0,4.141 -3.359,7.5 -7.5,7.5 H 190.5 c -4.141,0 -7.5,-3.359 -7.5,-7.5 0,-4.141 3.359,-7.5 7.5,-7.5 z"
         id="path574" />
    </clipPath>
    <clipPath
       clipPathUnits="userSpaceOnUse"
       id="clipPath577">
      <path
         d="M 0,0 H 842 V 1191 H 0 Z"
         transform="scale(1.3333333)"
         id="path577" />
    </clipPath>
    <clipPath
       clipPathUnits="userSpaceOnUse"
       id="clipPath576">
      <path
         d="m 190.438,321.75 h 125.613 c 4.137,0 7.5,3.359 7.5,7.5 0,4.141 -3.363,7.5 -7.5,7.5 H 190.438 c -4.141,0 -7.5,-3.359 -7.5,-7.5 0,-4.141 3.359,-7.5 7.5,-7.5 z"
         id="path576" />
    </clipPath>
    <clipPath
       clipPathUnits="userSpaceOnUse"
       id="clipPath578">
      <path
         d="M 0,0 H 842 V 1191 H 0 Z"
         id="path578" />
    </clipPath>
    <clipPath
       clipPathUnits="userSpaceOnUse"
       id="clipPath579">
      <path
         d="M 0,0 H 842 V 1191 H 0 Z"
         id="path579" />
    </clipPath>
    <clipPath
       clipPathUnits="userSpaceOnUse"
       id="clipPath567-5">
      <path
         d="M 0,0 H 842 V 1191 H 0 Z"
         transform="scale(1.3333333)"
         id="path567-6" />
    </clipPath>
    <clipPath
       clipPathUnits="userSpaceOnUse"
       id="clipPath566-2">
      <path
         d="m 67.5,322 h 105 c 4.141,0 7.5,3.359 7.5,7.5 0,4.141 -3.359,7.5 -7.5,7.5 h -105 c -4.141,0 -7.5,-3.359 -7.5,-7.5 0,-4.141 3.359,-7.5 7.5,-7.5 z"
         id="path566-9" />
    </clipPath>
    <clipPath
       clipPathUnits="userSpaceOnUse"
       id="clipPath569-1">
      <path
         d="M 0,0 H 842 V 1191 H 0 Z"
         transform="scale(1.3333333)"
         id="path569-2" />
    </clipPath>
    <clipPath
       clipPathUnits="userSpaceOnUse"
       id="clipPath568-7">
      <path
         d="m 67.5,321.75 h 104.938 c 4.14,0 7.5,3.359 7.5,7.5 0,4.141 -3.36,7.5 -7.5,7.5 H 67.5 c -4.141,0 -7.5,-3.359 -7.5,-7.5 0,-4.141 3.359,-7.5 7.5,-7.5 z"
         id="path568-0" />
    </clipPath>
    <clipPath
       clipPathUnits="userSpaceOnUse"
       id="clipPath570-9">
      <path
         d="M 0,0 H 842 V 1191 H 0 Z"
         id="path570-3" />
    </clipPath>
    <clipPath
       clipPathUnits="userSpaceOnUse"
       id="clipPath571-6">
      <path
         d="M 0,0 H 842 V 1191 H 0 Z"
         id="path571-0" />
    </clipPath>
    <clipPath
       clipPathUnits="userSpaceOnUse"
       id="clipPath575-6">
      <path
         d="M 0,0 H 842 V 1191 H 0 Z"
         transform="scale(1.3333333)"
         id="path575-2" />
    </clipPath>
    <clipPath
       clipPathUnits="userSpaceOnUse"
       id="clipPath574-6">
      <path
         d="M 190.5,322 H 316 c 4.141,0 7.5,3.359 7.5,7.5 0,4.141 -3.359,7.5 -7.5,7.5 H 190.5 c -4.141,0 -7.5,-3.359 -7.5,-7.5 0,-4.141 3.359,-7.5 7.5,-7.5 z"
         id="path574-1" />
    </clipPath>
    <clipPath
       clipPathUnits="userSpaceOnUse"
       id="clipPath577-8">
      <path
         d="M 0,0 H 842 V 1191 H 0 Z"
         transform="scale(1.3333333)"
         id="path577-7" />
    </clipPath>
    <clipPath
       clipPathUnits="userSpaceOnUse"
       id="clipPath576-9">
      <path
         d="m 190.438,321.75 h 125.613 c 4.137,0 7.5,3.359 7.5,7.5 0,4.141 -3.363,7.5 -7.5,7.5 H 190.438 c -4.141,0 -7.5,-3.359 -7.5,-7.5 0,-4.141 3.359,-7.5 7.5,-7.5 z"
         id="path576-2" />
    </clipPath>
    <clipPath
       clipPathUnits="userSpaceOnUse"
       id="clipPath578-0">
      <path
         d="M 0,0 H 842 V 1191 H 0 Z"
         id="path578-2" />
    </clipPath>
    <clipPath
       clipPathUnits="userSpaceOnUse"
       id="clipPath579-3">
      <path
         d="M 0,0 H 842 V 1191 H 0 Z"
         id="path579-7" />
    </clipPath>
  </defs>
  <g
     id="layer1">
    <g
       clip-path="url(#clipPath567-5)"
       id="g1865"
       transform="matrix(0.29084796,0,0,0.29084796,-23.267836,-124.86685)">
      <path
         d="m 60,322 h 120 v 15 H 60 Z m 113,1.64124 H 68 c -3.312,0 -6,2.688 -6,6 0,3.312 2.688,6 6,6 h 105 c 3.312,0 6,-2.688 6,-6 0,-3.312 -2.688,-6 -6,-6 z"
         style="fill:#cac542;fill-opacity:1;fill-rule:evenodd;stroke:none"
         transform="scale(1.3333333)"
         clip-path="url(#clipPath566-2)"
         id="path1865" />
    </g>
    <g
       clip-path="url(#clipPath569-1)"
       id="g1866"
       transform="matrix(0.29084796,0,0,0.29084796,-23.267836,-124.77378)">
      <path
         d="m 60,321.75 h 52.977 v 15 H 60 Z"
         style="fill:#cac542;fill-opacity:1;fill-rule:nonzero;stroke:none"
         transform="scale(1.3333333)"
         clip-path="url(#clipPath568-7)"
         id="path1866" />
    </g>
    <path
       d="m 65.297,332.5 v -6.547 h 3.984 v 0.735 h -3.156 v 2.14 h 2.937 v 0.734 h -2.937 v 2.204 h 3.203 v 0.734 z m 4.898,0 1.938,-2.828 v 0.609 l -1.828,-2.687 h 0.922 l 0.609,0.953 c 0.156,0.242 0.289,0.469 0.406,0.687 0.113,0.211 0.235,0.414 0.36,0.61 h -0.407 c 0.125,-0.196 0.239,-0.399 0.344,-0.61 0.102,-0.218 0.234,-0.445 0.391,-0.687 l 0.625,-0.953 h 0.906 l -1.844,2.718 v -0.578 l 1.922,2.766 h -0.922 l -0.719,-1.109 c -0.156,-0.239 -0.293,-0.457 -0.406,-0.657 -0.105,-0.207 -0.219,-0.41 -0.344,-0.609 h 0.422 c -0.125,0.199 -0.242,0.402 -0.343,0.609 -0.094,0.2 -0.227,0.418 -0.391,0.657 l -0.719,1.109 z m 7.43,-4.906 v 0.672 h -2.531 v -0.672 z m -1.797,-1.172 h 0.797 v 4.797 c 0,0.23 0.039,0.398 0.125,0.5 0.094,0.093 0.242,0.14 0.453,0.14 0.039,0 0.098,-0.004 0.172,-0.015 0.082,-0.008 0.16,-0.02 0.234,-0.032 l 0.157,0.657 c -0.086,0.031 -0.18,0.051 -0.282,0.062 -0.105,0.02 -0.211,0.031 -0.312,0.031 -0.43,0 -0.762,-0.109 -1,-0.328 -0.231,-0.226 -0.344,-0.546 -0.344,-0.953 z m 4.801,6.187 c -0.481,0 -0.891,-0.105 -1.234,-0.312 -0.344,-0.219 -0.61,-0.516 -0.797,-0.891 -0.188,-0.375 -0.282,-0.816 -0.282,-1.328 0,-0.5 0.086,-0.941 0.266,-1.328 0.188,-0.383 0.445,-0.68 0.781,-0.891 0.332,-0.218 0.723,-0.328 1.172,-0.328 0.258,0 0.516,0.043 0.766,0.125 0.25,0.086 0.476,0.227 0.687,0.422 0.207,0.188 0.375,0.438 0.5,0.75 0.125,0.313 0.188,0.699 0.188,1.156 v 0.328 h -3.813 v -0.671 h 3.375 l -0.359,0.25 c 0,-0.321 -0.055,-0.61 -0.156,-0.86 -0.106,-0.25 -0.258,-0.441 -0.453,-0.578 -0.2,-0.144 -0.446,-0.219 -0.735,-0.219 -0.305,0 -0.558,0.075 -0.765,0.219 -0.211,0.137 -0.372,0.324 -0.485,0.563 -0.117,0.23 -0.172,0.48 -0.172,0.75 v 0.437 c 0,0.367 0.063,0.68 0.188,0.938 0.133,0.25 0.312,0.445 0.531,0.578 0.227,0.125 0.492,0.187 0.797,0.187 0.187,0 0.359,-0.023 0.516,-0.078 0.164,-0.062 0.304,-0.148 0.421,-0.266 0.114,-0.113 0.204,-0.253 0.266,-0.421 l 0.766,0.218 c -0.086,0.243 -0.219,0.453 -0.407,0.641 -0.179,0.188 -0.402,0.34 -0.671,0.453 -0.262,0.102 -0.559,0.156 -0.891,0.156 z m 3.172,-0.109 v -4.906 h 0.765 v 0.75 h 0.063 c 0.082,-0.25 0.238,-0.446 0.469,-0.594 0.238,-0.156 0.504,-0.234 0.797,-0.234 0.062,0 0.128,0.007 0.203,0.015 0.082,0 0.148,0 0.203,0 v 0.797 c -0.024,-0.008 -0.078,-0.019 -0.172,-0.031 -0.094,-0.008 -0.195,-0.016 -0.297,-0.016 -0.242,0 -0.453,0.055 -0.641,0.157 -0.187,0.093 -0.336,0.23 -0.437,0.406 -0.106,0.168 -0.156,0.359 -0.156,0.578 v 3.078 z m 4.32,-2.938 v 2.938 h -0.797 v -4.906 h 0.766 v 1.187 h -0.11 c 0.157,-0.457 0.368,-0.781 0.641,-0.969 0.281,-0.187 0.609,-0.281 0.984,-0.281 0.321,0 0.61,0.071 0.86,0.203 0.25,0.137 0.441,0.34 0.578,0.61 0.145,0.273 0.219,0.617 0.219,1.031 v 3.125 h -0.797 v -3.047 c 0,-0.383 -0.102,-0.68 -0.297,-0.891 -0.199,-0.218 -0.469,-0.328 -0.813,-0.328 -0.23,0 -0.437,0.055 -0.625,0.157 -0.187,0.105 -0.339,0.257 -0.453,0.453 -0.105,0.199 -0.156,0.437 -0.156,0.718 z m 5.902,3.047 c -0.304,0 -0.585,-0.058 -0.843,-0.171 -0.25,-0.114 -0.453,-0.286 -0.61,-0.516 -0.148,-0.227 -0.218,-0.5 -0.218,-0.813 0,-0.281 0.054,-0.507 0.171,-0.687 0.114,-0.176 0.258,-0.317 0.438,-0.422 0.187,-0.102 0.394,-0.176 0.625,-0.219 0.226,-0.051 0.457,-0.093 0.687,-0.125 0.289,-0.039 0.524,-0.07 0.704,-0.094 0.187,-0.019 0.32,-0.05 0.406,-0.093 0.094,-0.051 0.14,-0.141 0.14,-0.266 v -0.015 c 0,-0.208 -0.039,-0.379 -0.109,-0.516 -0.074,-0.145 -0.187,-0.254 -0.344,-0.328 -0.148,-0.082 -0.336,-0.125 -0.562,-0.125 -0.242,0 -0.446,0.039 -0.61,0.109 -0.168,0.074 -0.304,0.168 -0.406,0.281 -0.105,0.106 -0.183,0.215 -0.234,0.329 l -0.766,-0.25 c 0.125,-0.301 0.289,-0.536 0.5,-0.704 0.219,-0.164 0.457,-0.281 0.719,-0.343 0.258,-0.071 0.516,-0.11 0.766,-0.11 0.164,0 0.351,0.024 0.562,0.063 0.207,0.031 0.41,0.109 0.609,0.234 0.196,0.117 0.36,0.289 0.485,0.516 0.125,0.23 0.187,0.539 0.187,0.922 v 3.234 h -0.781 v -0.672 h -0.047 c -0.054,0.117 -0.14,0.234 -0.265,0.36 -0.125,0.124 -0.289,0.23 -0.485,0.312 -0.199,0.07 -0.437,0.109 -0.719,0.109 z m 0.141,-0.687 c 0.289,0 0.535,-0.055 0.734,-0.172 0.207,-0.113 0.364,-0.266 0.469,-0.453 0.102,-0.188 0.156,-0.379 0.156,-0.578 v -0.672 c -0.031,0.031 -0.105,0.062 -0.218,0.094 -0.106,0.031 -0.227,0.062 -0.36,0.093 -0.136,0.024 -0.273,0.043 -0.406,0.063 -0.125,0.012 -0.23,0.023 -0.312,0.031 -0.188,0.024 -0.368,0.063 -0.532,0.125 -0.168,0.055 -0.304,0.137 -0.406,0.25 -0.094,0.106 -0.141,0.25 -0.141,0.438 0,0.168 0.04,0.308 0.125,0.421 0.094,0.118 0.211,0.204 0.36,0.266 0.156,0.063 0.332,0.094 0.531,0.094 z m 4.645,0.609 c -0.368,0 -0.641,-0.097 -0.829,-0.297 -0.187,-0.195 -0.281,-0.472 -0.281,-0.828 v -5.453 h 0.797 v 5.266 c 0,0.219 0.024,0.375 0.078,0.469 0.051,0.093 0.16,0.14 0.328,0.14 0.082,0 0.145,0 0.188,0 0.051,-0.008 0.094,-0.019 0.125,-0.031 l 0.172,0.656 c -0.075,0.024 -0.164,0.039 -0.266,0.047 -0.105,0.02 -0.211,0.031 -0.312,0.031 z m 4.117,0.063 c -0.555,0 -1.055,-0.133 -1.5,-0.406 -0.438,-0.27 -0.781,-0.657 -1.031,-1.157 -0.25,-0.508 -0.375,-1.109 -0.375,-1.797 0,-0.695 0.125,-1.296 0.375,-1.796 0.25,-0.5 0.593,-0.883 1.031,-1.157 0.445,-0.281 0.945,-0.422 1.5,-0.422 0.332,0 0.644,0.055 0.937,0.157 0.301,0.093 0.567,0.234 0.797,0.422 0.238,0.187 0.438,0.414 0.594,0.671 0.156,0.262 0.258,0.563 0.312,0.907 h -0.828 c -0.054,-0.227 -0.136,-0.426 -0.25,-0.594 -0.105,-0.164 -0.242,-0.305 -0.406,-0.422 -0.168,-0.125 -0.352,-0.211 -0.547,-0.266 -0.187,-0.062 -0.39,-0.093 -0.609,-0.093 -0.387,0 -0.742,0.101 -1.063,0.297 -0.312,0.199 -0.562,0.492 -0.75,0.874 -0.187,0.387 -0.281,0.86 -0.281,1.422 0,0.555 0.094,1.024 0.281,1.407 0.188,0.386 0.438,0.679 0.75,0.875 0.321,0.199 0.676,0.296 1.063,0.296 0.219,0 0.422,-0.023 0.609,-0.078 0.195,-0.062 0.379,-0.148 0.547,-0.265 0.164,-0.125 0.301,-0.27 0.406,-0.438 0.114,-0.176 0.196,-0.375 0.25,-0.593 h 0.828 c -0.054,0.335 -0.156,0.636 -0.312,0.906 -0.156,0.261 -0.356,0.484 -0.594,0.672 -0.23,0.187 -0.496,0.336 -0.797,0.437 -0.293,0.094 -0.605,0.141 -0.937,0.141 z m 4.762,-6.641 v 6.547 h -0.829 v -6.547 z"
       style="fill:#1f1e24;fill-opacity:1;fill-rule:nonzero;stroke:none"
       transform="matrix(0.38779726,0,0,0.38779726,-23.267836,-124.86685)"
       clip-path="url(#clipPath570-9)"
       id="path1867" />
    <path
       d="m 116.773,332.5 v -6.547 h 0.985 l 2.656,4.188 c 0.07,0.105 0.156,0.246 0.25,0.421 0.102,0.168 0.211,0.36 0.328,0.579 0.113,0.211 0.227,0.433 0.344,0.671 h -0.125 c -0.023,-0.25 -0.043,-0.488 -0.063,-0.718 -0.011,-0.227 -0.015,-0.438 -0.015,-0.625 0,-0.196 0,-0.364 0,-0.5 v -4.016 h 0.828 v 6.547 h -0.984 l -2.375,-3.734 c -0.106,-0.164 -0.215,-0.336 -0.329,-0.516 -0.117,-0.188 -0.246,-0.406 -0.39,-0.656 -0.137,-0.25 -0.309,-0.563 -0.516,-0.938 h 0.156 c 0.02,0.324 0.036,0.625 0.047,0.906 0.008,0.274 0.016,0.512 0.016,0.719 0.008,0.211 0.016,0.371 0.016,0.485 v 3.734 z m 8.743,0.109 c -0.481,0 -0.891,-0.105 -1.235,-0.312 -0.343,-0.219 -0.609,-0.516 -0.797,-0.891 -0.187,-0.375 -0.281,-0.816 -0.281,-1.328 0,-0.5 0.086,-0.941 0.266,-1.328 0.187,-0.383 0.445,-0.68 0.781,-0.891 0.332,-0.218 0.723,-0.328 1.172,-0.328 0.258,0 0.516,0.043 0.766,0.125 0.25,0.086 0.476,0.227 0.687,0.422 0.207,0.188 0.375,0.438 0.5,0.75 0.125,0.313 0.187,0.699 0.187,1.156 v 0.328 h -3.812 v -0.671 h 3.375 l -0.359,0.25 c 0,-0.321 -0.055,-0.61 -0.157,-0.86 -0.105,-0.25 -0.257,-0.441 -0.453,-0.578 -0.199,-0.144 -0.445,-0.219 -0.734,-0.219 -0.305,0 -0.559,0.075 -0.766,0.219 -0.211,0.137 -0.371,0.324 -0.484,0.563 -0.117,0.23 -0.172,0.48 -0.172,0.75 v 0.437 c 0,0.367 0.062,0.68 0.188,0.938 0.132,0.25 0.312,0.445 0.531,0.578 0.226,0.125 0.492,0.187 0.797,0.187 0.187,0 0.359,-0.023 0.515,-0.078 0.164,-0.062 0.305,-0.148 0.422,-0.266 0.113,-0.113 0.203,-0.253 0.266,-0.421 l 0.765,0.218 c -0.086,0.243 -0.218,0.453 -0.406,0.641 -0.18,0.188 -0.402,0.34 -0.672,0.453 -0.261,0.102 -0.558,0.156 -0.89,0.156 z m 5.25,0 c -0.481,0 -0.891,-0.105 -1.235,-0.312 -0.343,-0.219 -0.609,-0.516 -0.797,-0.891 -0.187,-0.375 -0.281,-0.816 -0.281,-1.328 0,-0.5 0.086,-0.941 0.266,-1.328 0.187,-0.383 0.445,-0.68 0.781,-0.891 0.332,-0.218 0.723,-0.328 1.172,-0.328 0.258,0 0.516,0.043 0.766,0.125 0.25,0.086 0.476,0.227 0.687,0.422 0.207,0.188 0.375,0.438 0.5,0.75 0.125,0.313 0.187,0.699 0.187,1.156 v 0.328 H 129 v -0.671 h 3.375 l -0.359,0.25 c 0,-0.321 -0.055,-0.61 -0.157,-0.86 -0.105,-0.25 -0.257,-0.441 -0.453,-0.578 -0.199,-0.144 -0.445,-0.219 -0.734,-0.219 -0.305,0 -0.559,0.075 -0.766,0.219 -0.211,0.137 -0.371,0.324 -0.484,0.563 -0.117,0.23 -0.172,0.48 -0.172,0.75 v 0.437 c 0,0.367 0.062,0.68 0.188,0.938 0.132,0.25 0.312,0.445 0.531,0.578 0.226,0.125 0.492,0.187 0.797,0.187 0.187,0 0.359,-0.023 0.515,-0.078 0.164,-0.062 0.305,-0.148 0.422,-0.266 0.113,-0.113 0.203,-0.253 0.266,-0.421 l 0.765,0.218 c -0.086,0.243 -0.218,0.453 -0.406,0.641 -0.18,0.188 -0.402,0.34 -0.672,0.453 -0.261,0.102 -0.558,0.156 -0.89,0.156 z m 5.015,0 c -0.406,0 -0.765,-0.105 -1.078,-0.312 -0.312,-0.207 -0.558,-0.5 -0.734,-0.875 -0.18,-0.383 -0.266,-0.836 -0.266,-1.36 0,-0.519 0.086,-0.968 0.266,-1.343 0.176,-0.383 0.422,-0.676 0.734,-0.875 0.313,-0.207 0.676,-0.313 1.094,-0.313 0.312,0 0.562,0.055 0.75,0.157 0.187,0.105 0.332,0.226 0.437,0.359 0.102,0.125 0.18,0.234 0.235,0.328 h 0.062 v -2.422 h 0.781 v 6.547 h -0.765 v -0.766 h -0.078 c -0.055,0.094 -0.133,0.211 -0.235,0.344 -0.105,0.137 -0.257,0.262 -0.453,0.375 -0.187,0.102 -0.437,0.156 -0.75,0.156 z m 0.125,-0.718 c 0.301,0 0.551,-0.079 0.75,-0.235 0.207,-0.156 0.364,-0.367 0.469,-0.64 0.102,-0.282 0.156,-0.602 0.156,-0.969 0,-0.363 -0.054,-0.68 -0.156,-0.953 -0.105,-0.27 -0.262,-0.477 -0.469,-0.625 -0.199,-0.157 -0.449,-0.235 -0.75,-0.235 -0.312,0 -0.574,0.086 -0.781,0.25 -0.211,0.157 -0.367,0.371 -0.469,0.641 -0.094,0.273 -0.14,0.578 -0.14,0.922 0,0.344 0.05,0.656 0.156,0.937 0.101,0.282 0.258,0.508 0.469,0.672 0.207,0.156 0.461,0.235 0.765,0.235 z m 5.215,0.718 c -0.336,0 -0.633,-0.047 -0.891,-0.14 -0.261,-0.102 -0.48,-0.25 -0.656,-0.438 -0.168,-0.195 -0.281,-0.437 -0.344,-0.719 l 0.75,-0.187 c 0.071,0.273 0.208,0.469 0.407,0.594 0.195,0.125 0.441,0.187 0.734,0.187 0.344,0 0.613,-0.07 0.813,-0.218 0.207,-0.145 0.312,-0.317 0.312,-0.516 0,-0.176 -0.062,-0.317 -0.187,-0.422 -0.118,-0.113 -0.293,-0.203 -0.532,-0.266 l -0.828,-0.187 c -0.437,-0.102 -0.765,-0.266 -0.984,-0.485 -0.219,-0.226 -0.328,-0.515 -0.328,-0.859 0,-0.281 0.078,-0.523 0.234,-0.734 0.156,-0.219 0.367,-0.383 0.641,-0.5 0.281,-0.125 0.593,-0.188 0.937,-0.188 0.344,0 0.629,0.055 0.86,0.157 0.238,0.093 0.429,0.23 0.578,0.406 0.144,0.179 0.254,0.383 0.328,0.609 l -0.703,0.188 c -0.074,-0.176 -0.188,-0.332 -0.344,-0.469 -0.156,-0.145 -0.391,-0.219 -0.703,-0.219 -0.293,0 -0.539,0.07 -0.735,0.203 -0.199,0.137 -0.296,0.305 -0.296,0.5 0,0.188 0.062,0.34 0.187,0.453 0.133,0.106 0.348,0.188 0.641,0.25 l 0.75,0.172 c 0.437,0.117 0.758,0.281 0.968,0.5 0.219,0.219 0.329,0.496 0.329,0.828 0,0.293 -0.086,0.555 -0.25,0.782 -0.157,0.218 -0.383,0.398 -0.672,0.531 -0.293,0.125 -0.633,0.187 -1.016,0.187 z m 2.168,-5.921 v -0.735 h 4.938 v 0.735 h -2.047 v 5.812 h -0.844 v -5.812 z m 7.438,5.921 c -0.481,0 -0.891,-0.105 -1.235,-0.312 -0.344,-0.219 -0.609,-0.516 -0.797,-0.891 -0.187,-0.375 -0.281,-0.816 -0.281,-1.328 0,-0.5 0.086,-0.941 0.266,-1.328 0.187,-0.383 0.445,-0.68 0.781,-0.891 0.332,-0.218 0.723,-0.328 1.172,-0.328 0.258,0 0.515,0.043 0.765,0.125 0.25,0.086 0.477,0.227 0.688,0.422 0.207,0.188 0.375,0.438 0.5,0.75 0.125,0.313 0.187,0.699 0.187,1.156 v 0.328 h -3.812 v -0.671 h 3.375 l -0.359,0.25 c 0,-0.321 -0.055,-0.61 -0.157,-0.86 -0.105,-0.25 -0.258,-0.441 -0.453,-0.578 -0.199,-0.144 -0.445,-0.219 -0.734,-0.219 -0.305,0 -0.559,0.075 -0.766,0.219 -0.211,0.137 -0.371,0.324 -0.484,0.563 -0.117,0.23 -0.172,0.48 -0.172,0.75 v 0.437 c 0,0.367 0.062,0.68 0.187,0.938 0.133,0.25 0.313,0.445 0.532,0.578 0.226,0.125 0.492,0.187 0.797,0.187 0.187,0 0.359,-0.023 0.515,-0.078 0.164,-0.062 0.305,-0.148 0.422,-0.266 0.113,-0.113 0.203,-0.253 0.266,-0.421 l 0.765,0.218 c -0.086,0.243 -0.218,0.453 -0.406,0.641 -0.18,0.188 -0.402,0.34 -0.672,0.453 -0.262,0.102 -0.558,0.156 -0.89,0.156 z m 4.843,0 c -0.336,0 -0.632,-0.047 -0.89,-0.14 -0.262,-0.102 -0.481,-0.25 -0.657,-0.438 -0.168,-0.195 -0.281,-0.437 -0.343,-0.719 l 0.75,-0.187 c 0.07,0.273 0.207,0.469 0.406,0.594 0.195,0.125 0.441,0.187 0.734,0.187 0.344,0 0.614,-0.07 0.813,-0.218 0.207,-0.145 0.312,-0.317 0.312,-0.516 0,-0.176 -0.062,-0.317 -0.187,-0.422 -0.117,-0.113 -0.293,-0.203 -0.531,-0.266 l -0.829,-0.187 c -0.437,-0.102 -0.765,-0.266 -0.984,-0.485 -0.219,-0.226 -0.328,-0.515 -0.328,-0.859 0,-0.281 0.078,-0.523 0.234,-0.734 0.157,-0.219 0.368,-0.383 0.641,-0.5 0.281,-0.125 0.594,-0.188 0.937,-0.188 0.344,0 0.629,0.055 0.86,0.157 0.238,0.093 0.43,0.23 0.578,0.406 0.144,0.179 0.254,0.383 0.328,0.609 l -0.703,0.188 c -0.074,-0.176 -0.188,-0.332 -0.344,-0.469 -0.156,-0.145 -0.39,-0.219 -0.703,-0.219 -0.293,0 -0.539,0.07 -0.734,0.203 -0.2,0.137 -0.297,0.305 -0.297,0.5 0,0.188 0.062,0.34 0.187,0.453 0.133,0.106 0.348,0.188 0.641,0.25 l 0.75,0.172 c 0.437,0.117 0.758,0.281 0.969,0.5 0.218,0.219 0.328,0.496 0.328,0.828 0,0.293 -0.086,0.555 -0.25,0.782 -0.156,0.218 -0.383,0.398 -0.672,0.531 -0.293,0.125 -0.633,0.187 -1.016,0.187 z m 5.016,-5.015 v 0.672 h -2.531 v -0.672 z m -1.797,-1.172 h 0.797 v 4.797 c 0,0.23 0.039,0.398 0.125,0.5 0.094,0.093 0.242,0.14 0.453,0.14 0.039,0 0.098,-0.004 0.172,-0.015 0.082,-0.008 0.16,-0.02 0.234,-0.032 l 0.157,0.657 c -0.086,0.031 -0.18,0.051 -0.282,0.062 -0.105,0.02 -0.211,0.031 -0.312,0.031 -0.43,0 -0.762,-0.109 -1,-0.328 -0.231,-0.226 -0.344,-0.546 -0.344,-0.953 z m 2.813,6.078 v -4.906 h 0.796 v 4.906 z m 0.406,-5.719 c -0.149,0 -0.278,-0.051 -0.391,-0.156 -0.105,-0.102 -0.156,-0.223 -0.156,-0.359 0,-0.145 0.051,-0.27 0.156,-0.375 0.113,-0.102 0.25,-0.157 0.406,-0.157 0.145,0 0.27,0.055 0.375,0.157 0.114,0.105 0.172,0.226 0.172,0.359 0,0.148 -0.058,0.273 -0.172,0.375 -0.105,0.105 -0.234,0.156 -0.39,0.156 z m 2.562,2.781 v 2.938 h -0.797 v -4.906 h 0.766 v 1.187 h -0.109 c 0.156,-0.457 0.367,-0.781 0.64,-0.969 0.282,-0.187 0.61,-0.281 0.985,-0.281 0.32,0 0.609,0.071 0.859,0.203 0.25,0.137 0.441,0.34 0.578,0.61 0.145,0.273 0.219,0.617 0.219,1.031 v 3.125 h -0.797 v -3.047 c 0,-0.383 -0.102,-0.68 -0.297,-0.891 -0.199,-0.218 -0.469,-0.328 -0.812,-0.328 -0.231,0 -0.438,0.055 -0.625,0.157 -0.188,0.105 -0.34,0.257 -0.453,0.453 -0.106,0.199 -0.157,0.437 -0.157,0.718 z m 6.532,4.876 c -0.368,0 -0.684,-0.047 -0.954,-0.141 -0.261,-0.086 -0.48,-0.203 -0.656,-0.359 -0.18,-0.157 -0.32,-0.325 -0.422,-0.5 l 0.657,-0.407 c 0.062,0.094 0.144,0.196 0.25,0.313 0.101,0.113 0.242,0.207 0.421,0.281 0.176,0.082 0.411,0.125 0.704,0.125 0.394,0 0.718,-0.094 0.968,-0.281 0.25,-0.188 0.375,-0.485 0.375,-0.891 v -0.984 h -0.078 c -0.055,0.094 -0.133,0.211 -0.234,0.344 -0.094,0.124 -0.242,0.242 -0.438,0.343 -0.187,0.094 -0.437,0.141 -0.75,0.141 -0.398,0 -0.75,-0.094 -1.062,-0.281 -0.313,-0.188 -0.563,-0.457 -0.75,-0.813 -0.18,-0.351 -0.266,-0.789 -0.266,-1.312 0,-0.5 0.086,-0.938 0.266,-1.313 0.187,-0.375 0.437,-0.66 0.75,-0.859 0.312,-0.207 0.672,-0.313 1.078,-0.313 0.32,0 0.578,0.055 0.766,0.157 0.187,0.105 0.328,0.226 0.421,0.359 0.102,0.125 0.188,0.234 0.25,0.328 h 0.079 v -0.781 h 0.765 v 5.031 c 0,0.426 -0.101,0.77 -0.297,1.031 -0.187,0.27 -0.445,0.469 -0.765,0.594 -0.325,0.125 -0.684,0.188 -1.078,0.188 z m -0.032,-2.719 c 0.301,0 0.555,-0.067 0.766,-0.203 0.207,-0.133 0.363,-0.328 0.469,-0.578 0.101,-0.258 0.156,-0.571 0.156,-0.938 0,-0.344 -0.055,-0.645 -0.156,-0.906 -0.106,-0.27 -0.262,-0.477 -0.469,-0.625 -0.211,-0.157 -0.465,-0.235 -0.766,-0.235 -0.304,0 -0.558,0.086 -0.765,0.25 -0.211,0.157 -0.367,0.371 -0.469,0.641 -0.106,0.262 -0.156,0.555 -0.156,0.875 0,0.344 0.05,0.648 0.156,0.906 0.102,0.25 0.258,0.449 0.469,0.594 0.207,0.148 0.461,0.219 0.765,0.219 z"
       style="fill:#1f1e24;fill-opacity:1;fill-rule:nonzero;stroke:none"
       transform="matrix(0.38779726,0,0,0.38779726,-23.267836,-124.86685)"
       clip-path="url(#clipPath571-6)"
       id="path1868" />
  </g>
</svg>
