<?xml version="1.0" encoding="UTF-8" standalone="no"?>
<!-- Created with Inkscape (http://www.inkscape.org/) -->

<svg
   width="54.50956mm"
   height="5.8208385mm"
   viewBox="0 0 54.50956 5.8208384"
   version="1.1"
   id="svg1"
   sodipodi:docname="lnst1-plain.svg"
   inkscape:version="1.3 (0e150ed6c4, 2023-07-21)"
   xmlns:inkscape="http://www.inkscape.org/namespaces/inkscape"
   xmlns:sodipodi="http://sodipodi.sourceforge.net/DTD/sodipodi-0.dtd"
   xmlns="http://www.w3.org/2000/svg"
   xmlns:svg="http://www.w3.org/2000/svg">
  <sodipodi:namedview
     id="namedview1"
     pagecolor="#ffffff"
     bordercolor="#666666"
     borderopacity="1.0"
     inkscape:showpageshadow="2"
     inkscape:pageopacity="0.0"
     inkscape:pagecheckerboard="0"
     inkscape:deskcolor="#d1d1d1"
     inkscape:document-units="px"
     inkscape:zoom="4.4346944"
     inkscape:cx="114.66404"
     inkscape:cy="-3.3824202"
     inkscape:window-width="1920"
     inkscape:window-height="1132"
     inkscape:window-x="0"
     inkscape:window-y="0"
     inkscape:window-maximized="1"
     inkscape:current-layer="layer1" />
  <defs
     id="defs1">
    <clipPath
       clipPathUnits="userSpaceOnUse"
       id="clipPath565">
      <path
         d="M 0,0 H 842 V 1191 H 0 Z"
         transform="scale(1.3333333)"
         id="path565" />
    </clipPath>
    <clipPath
       clipPathUnits="userSpaceOnUse"
       id="clipPath564">
      <path
         d="m 67.5,321.75 h 104.938 c 4.14,0 7.5,3.359 7.5,7.5 0,4.141 -3.36,7.5 -7.5,7.5 H 67.5 c -4.141,0 -7.5,-3.359 -7.5,-7.5 0,-4.141 3.359,-7.5 7.5,-7.5 z"
         id="path564" />
    </clipPath>
    <clipPath
       clipPathUnits="userSpaceOnUse"
       id="clipPath567">
      <path
         d="M 0,0 H 842 V 1191 H 0 Z"
         transform="scale(1.3333333)"
         id="path567" />
    </clipPath>
    <clipPath
       clipPathUnits="userSpaceOnUse"
       id="clipPath566">
      <path
         d="m 67.5,322 h 105 c 4.141,0 7.5,3.359 7.5,7.5 0,4.141 -3.359,7.5 -7.5,7.5 h -105 c -4.141,0 -7.5,-3.359 -7.5,-7.5 0,-4.141 3.359,-7.5 7.5,-7.5 z"
         id="path566" />
    </clipPath>
    <clipPath
       clipPathUnits="userSpaceOnUse"
       id="clipPath569">
      <path
         d="M 0,0 H 842 V 1191 H 0 Z"
         transform="scale(1.3333333)"
         id="path569" />
    </clipPath>
    <clipPath
       clipPathUnits="userSpaceOnUse"
       id="clipPath568">
      <path
         d="m 67.5,321.75 h 104.938 c 4.14,0 7.5,3.359 7.5,7.5 0,4.141 -3.36,7.5 -7.5,7.5 H 67.5 c -4.141,0 -7.5,-3.359 -7.5,-7.5 0,-4.141 3.359,-7.5 7.5,-7.5 z"
         id="path568" />
    </clipPath>
    <clipPath
       clipPathUnits="userSpaceOnUse"
       id="clipPath570">
      <path
         d="M 0,0 H 842 V 1191 H 0 Z"
         id="path570" />
    </clipPath>
    <clipPath
       clipPathUnits="userSpaceOnUse"
       id="clipPath571">
      <path
         d="M 0,0 H 842 V 1191 H 0 Z"
         id="path571" />
    </clipPath>
    <clipPath
       clipPathUnits="userSpaceOnUse"
       id="clipPath573">
      <path
         d="M 0,0 H 842 V 1191 H 0 Z"
         transform="scale(1.3333333)"
         id="path573" />
    </clipPath>
    <clipPath
       clipPathUnits="userSpaceOnUse"
       id="clipPath572">
      <path
         d="m 190.438,321.75 h 125.613 c 4.137,0 7.5,3.359 7.5,7.5 0,4.141 -3.363,7.5 -7.5,7.5 H 190.438 c -4.141,0 -7.5,-3.359 -7.5,-7.5 0,-4.141 3.359,-7.5 7.5,-7.5 z"
         id="path572" />
    </clipPath>
    <clipPath
       clipPathUnits="userSpaceOnUse"
       id="clipPath575">
      <path
         d="M 0,0 H 842 V 1191 H 0 Z"
         transform="scale(1.3333333)"
         id="path575" />
    </clipPath>
    <clipPath
       clipPathUnits="userSpaceOnUse"
       id="clipPath574">
      <path
         d="M 190.5,322 H 316 c 4.141,0 7.5,3.359 7.5,7.5 0,4.141 -3.359,7.5 -7.5,7.5 H 190.5 c -4.141,0 -7.5,-3.359 -7.5,-7.5 0,-4.141 3.359,-7.5 7.5,-7.5 z"
         id="path574" />
    </clipPath>
    <clipPath
       clipPathUnits="userSpaceOnUse"
       id="clipPath577">
      <path
         d="M 0,0 H 842 V 1191 H 0 Z"
         transform="scale(1.3333333)"
         id="path577" />
    </clipPath>
    <clipPath
       clipPathUnits="userSpaceOnUse"
       id="clipPath576">
      <path
         d="m 190.438,321.75 h 125.613 c 4.137,0 7.5,3.359 7.5,7.5 0,4.141 -3.363,7.5 -7.5,7.5 H 190.438 c -4.141,0 -7.5,-3.359 -7.5,-7.5 0,-4.141 3.359,-7.5 7.5,-7.5 z"
         id="path576" />
    </clipPath>
    <clipPath
       clipPathUnits="userSpaceOnUse"
       id="clipPath578">
      <path
         d="M 0,0 H 842 V 1191 H 0 Z"
         id="path578" />
    </clipPath>
    <clipPath
       clipPathUnits="userSpaceOnUse"
       id="clipPath579">
      <path
         d="M 0,0 H 842 V 1191 H 0 Z"
         id="path579" />
    </clipPath>
    <clipPath
       clipPathUnits="userSpaceOnUse"
       id="clipPath567-5">
      <path
         d="M 0,0 H 842 V 1191 H 0 Z"
         transform="scale(1.3333333)"
         id="path567-6" />
    </clipPath>
    <clipPath
       clipPathUnits="userSpaceOnUse"
       id="clipPath566-2">
      <path
         d="m 67.5,322 h 105 c 4.141,0 7.5,3.359 7.5,7.5 0,4.141 -3.359,7.5 -7.5,7.5 h -105 c -4.141,0 -7.5,-3.359 -7.5,-7.5 0,-4.141 3.359,-7.5 7.5,-7.5 z"
         id="path566-9" />
    </clipPath>
    <clipPath
       clipPathUnits="userSpaceOnUse"
       id="clipPath569-1">
      <path
         d="M 0,0 H 842 V 1191 H 0 Z"
         transform="scale(1.3333333)"
         id="path569-2" />
    </clipPath>
    <clipPath
       clipPathUnits="userSpaceOnUse"
       id="clipPath568-7">
      <path
         d="m 67.5,321.75 h 104.938 c 4.14,0 7.5,3.359 7.5,7.5 0,4.141 -3.36,7.5 -7.5,7.5 H 67.5 c -4.141,0 -7.5,-3.359 -7.5,-7.5 0,-4.141 3.359,-7.5 7.5,-7.5 z"
         id="path568-0" />
    </clipPath>
    <clipPath
       clipPathUnits="userSpaceOnUse"
       id="clipPath570-9">
      <path
         d="M 0,0 H 842 V 1191 H 0 Z"
         id="path570-3" />
    </clipPath>
    <clipPath
       clipPathUnits="userSpaceOnUse"
       id="clipPath571-6">
      <path
         d="M 0,0 H 842 V 1191 H 0 Z"
         id="path571-0" />
    </clipPath>
    <clipPath
       clipPathUnits="userSpaceOnUse"
       id="clipPath575-6">
      <path
         d="M 0,0 H 842 V 1191 H 0 Z"
         transform="scale(1.3333333)"
         id="path575-2" />
    </clipPath>
    <clipPath
       clipPathUnits="userSpaceOnUse"
       id="clipPath574-6">
      <path
         d="M 190.5,322 H 316 c 4.141,0 7.5,3.359 7.5,7.5 0,4.141 -3.359,7.5 -7.5,7.5 H 190.5 c -4.141,0 -7.5,-3.359 -7.5,-7.5 0,-4.141 3.359,-7.5 7.5,-7.5 z"
         id="path574-1" />
    </clipPath>
    <clipPath
       clipPathUnits="userSpaceOnUse"
       id="clipPath577-8">
      <path
         d="M 0,0 H 842 V 1191 H 0 Z"
         transform="scale(1.3333333)"
         id="path577-7" />
    </clipPath>
    <clipPath
       clipPathUnits="userSpaceOnUse"
       id="clipPath576-9">
      <path
         d="m 190.438,321.75 h 125.613 c 4.137,0 7.5,3.359 7.5,7.5 0,4.141 -3.363,7.5 -7.5,7.5 H 190.438 c -4.141,0 -7.5,-3.359 -7.5,-7.5 0,-4.141 3.359,-7.5 7.5,-7.5 z"
         id="path576-2" />
    </clipPath>
    <clipPath
       clipPathUnits="userSpaceOnUse"
       id="clipPath578-0">
      <path
         d="M 0,0 H 842 V 1191 H 0 Z"
         id="path578-2" />
    </clipPath>
    <clipPath
       clipPathUnits="userSpaceOnUse"
       id="clipPath579-3">
      <path
         d="M 0,0 H 842 V 1191 H 0 Z"
         id="path579-7" />
    </clipPath>
  </defs>
  <g
     inkscape:label="Layer 1"
     inkscape:groupmode="layer"
     id="layer1">
    <g
       clip-path="url(#clipPath575-6)"
       id="g1870"
       transform="matrix(0.29084797,0,0,0.29084797,-70.942859,-124.86685)">
      <path
         d="m 183,322 h 141 v 15 H 183 Z m 133,1.66176 H 191 c -3.312,0 -6,2.688 -6,6 0,3.312 2.688,6 6,6 h 125 c 3.312,0 6,-2.688 6,-6 0,-3.312 -2.688,-6 -6,-6 z"
         style="fill:#cac542;fill-opacity:1;fill-rule:evenodd;stroke:none"
         transform="scale(1.3333333)"
         clip-path="url(#clipPath574-6)"
         id="path1870"
         sodipodi:nodetypes="cccccsssssss" />
    </g>
    <g
       clip-path="url(#clipPath577-8)"
       id="g1871"
       transform="matrix(0.29084797,0,0,0.29084797,-70.942859,-124.77378)">
      <path
         d="m 182.938,321.75 h 73.648 v 15 h -73.648 z"
         style="fill:#cac542;fill-opacity:1;fill-rule:nonzero;stroke:none"
         transform="scale(1.3333333)"
         clip-path="url(#clipPath576-9)"
         id="path1871" />
    </g>
    <path
       d="m 188.234,332.5 v -6.547 h 3.985 v 0.735 h -3.157 v 2.14 H 192 v 0.734 h -2.938 v 2.204 h 3.204 v 0.734 z m 4.899,0 1.937,-2.828 v 0.609 l -1.828,-2.687 h 0.922 l 0.609,0.953 c 0.157,0.242 0.289,0.469 0.407,0.687 0.113,0.211 0.234,0.414 0.359,0.61 h -0.406 c 0.125,-0.196 0.238,-0.399 0.344,-0.61 0.101,-0.218 0.234,-0.445 0.39,-0.687 l 0.625,-0.953 h 0.906 l -1.843,2.718 v -0.578 l 1.922,2.766 h -0.922 l -0.719,-1.109 c -0.156,-0.239 -0.293,-0.457 -0.406,-0.657 -0.106,-0.207 -0.219,-0.41 -0.344,-0.609 h 0.422 c -0.125,0.199 -0.242,0.402 -0.344,0.609 -0.094,0.2 -0.226,0.418 -0.391,0.657 l -0.718,1.109 z m 7.429,-4.906 v 0.672 h -2.531 v -0.672 z m -1.796,-1.172 h 0.796 v 4.797 c 0,0.23 0.04,0.398 0.126,0.5 0.093,0.093 0.242,0.14 0.453,0.14 0.039,0 0.097,-0.004 0.171,-0.015 0.083,-0.008 0.161,-0.02 0.235,-0.032 l 0.156,0.657 c -0.086,0.031 -0.18,0.051 -0.281,0.062 -0.106,0.02 -0.211,0.031 -0.313,0.031 -0.429,0 -0.761,-0.109 -1,-0.328 -0.23,-0.226 -0.343,-0.546 -0.343,-0.953 z m 4.8,6.187 c -0.48,0 -0.89,-0.105 -1.234,-0.312 -0.344,-0.219 -0.609,-0.516 -0.797,-0.891 -0.187,-0.375 -0.281,-0.816 -0.281,-1.328 0,-0.5 0.086,-0.941 0.266,-1.328 0.187,-0.383 0.445,-0.68 0.781,-0.891 0.332,-0.218 0.722,-0.328 1.172,-0.328 0.257,0 0.515,0.043 0.765,0.125 0.25,0.086 0.477,0.227 0.688,0.422 0.207,0.188 0.375,0.438 0.5,0.75 0.125,0.313 0.187,0.699 0.187,1.156 v 0.328 h -3.812 v -0.671 h 3.375 l -0.36,0.25 c 0,-0.321 -0.054,-0.61 -0.156,-0.86 -0.105,-0.25 -0.258,-0.441 -0.453,-0.578 -0.199,-0.144 -0.445,-0.219 -0.734,-0.219 -0.305,0 -0.559,0.075 -0.766,0.219 -0.211,0.137 -0.371,0.324 -0.484,0.563 -0.118,0.23 -0.172,0.48 -0.172,0.75 v 0.437 c 0,0.367 0.062,0.68 0.187,0.938 0.133,0.25 0.313,0.445 0.532,0.578 0.226,0.125 0.492,0.187 0.796,0.187 0.188,0 0.36,-0.023 0.516,-0.078 0.164,-0.062 0.305,-0.148 0.422,-0.266 0.113,-0.113 0.203,-0.253 0.266,-0.421 l 0.765,0.218 c -0.086,0.243 -0.219,0.453 -0.406,0.641 -0.18,0.188 -0.402,0.34 -0.672,0.453 -0.262,0.102 -0.559,0.156 -0.891,0.156 z m 3.172,-0.109 v -4.906 h 0.766 v 0.75 h 0.062 c 0.082,-0.25 0.239,-0.446 0.469,-0.594 0.238,-0.156 0.504,-0.234 0.797,-0.234 0.063,0 0.129,0.007 0.203,0.015 0.082,0 0.149,0 0.203,0 v 0.797 c -0.023,-0.008 -0.078,-0.019 -0.172,-0.031 -0.093,-0.008 -0.195,-0.016 -0.296,-0.016 -0.243,0 -0.454,0.055 -0.641,0.157 -0.188,0.093 -0.336,0.23 -0.438,0.406 -0.105,0.168 -0.156,0.359 -0.156,0.578 v 3.078 z m 4.321,-2.938 v 2.938 h -0.797 v -4.906 h 0.765 v 1.187 h -0.109 c 0.156,-0.457 0.367,-0.781 0.641,-0.969 0.281,-0.187 0.609,-0.281 0.984,-0.281 0.32,0 0.609,0.071 0.859,0.203 0.25,0.137 0.442,0.34 0.578,0.61 0.145,0.273 0.219,0.617 0.219,1.031 v 3.125 h -0.797 v -3.047 c 0,-0.383 -0.101,-0.68 -0.297,-0.891 -0.199,-0.218 -0.468,-0.328 -0.812,-0.328 -0.231,0 -0.438,0.055 -0.625,0.157 -0.188,0.105 -0.34,0.257 -0.453,0.453 -0.106,0.199 -0.156,0.437 -0.156,0.718 z m 5.902,3.047 c -0.305,0 -0.586,-0.058 -0.844,-0.171 -0.25,-0.114 -0.453,-0.286 -0.609,-0.516 -0.149,-0.227 -0.219,-0.5 -0.219,-0.813 0,-0.281 0.055,-0.507 0.172,-0.687 0.113,-0.176 0.258,-0.317 0.437,-0.422 0.188,-0.102 0.395,-0.176 0.625,-0.219 0.227,-0.051 0.457,-0.093 0.688,-0.125 0.289,-0.039 0.523,-0.07 0.703,-0.094 0.188,-0.019 0.32,-0.05 0.406,-0.093 0.094,-0.051 0.141,-0.141 0.141,-0.266 v -0.015 c 0,-0.208 -0.039,-0.379 -0.109,-0.516 -0.075,-0.145 -0.188,-0.254 -0.344,-0.328 -0.149,-0.082 -0.336,-0.125 -0.563,-0.125 -0.242,0 -0.445,0.039 -0.609,0.109 -0.168,0.074 -0.305,0.168 -0.406,0.281 -0.106,0.106 -0.184,0.215 -0.235,0.329 l -0.765,-0.25 c 0.125,-0.301 0.289,-0.536 0.5,-0.704 0.218,-0.164 0.457,-0.281 0.718,-0.343 0.258,-0.071 0.516,-0.11 0.766,-0.11 0.164,0 0.352,0.024 0.563,0.063 0.207,0.031 0.41,0.109 0.609,0.234 0.195,0.117 0.359,0.289 0.484,0.516 0.125,0.23 0.188,0.539 0.188,0.922 v 3.234 h -0.781 v -0.672 h -0.047 c -0.055,0.117 -0.141,0.234 -0.266,0.36 -0.125,0.124 -0.289,0.23 -0.484,0.312 -0.2,0.07 -0.438,0.109 -0.719,0.109 z m 0.141,-0.687 c 0.289,0 0.535,-0.055 0.734,-0.172 0.207,-0.113 0.363,-0.266 0.469,-0.453 0.101,-0.188 0.156,-0.379 0.156,-0.578 v -0.672 c -0.031,0.031 -0.106,0.062 -0.219,0.094 -0.105,0.031 -0.226,0.062 -0.359,0.093 -0.137,0.024 -0.274,0.043 -0.406,0.063 -0.125,0.012 -0.231,0.023 -0.313,0.031 -0.187,0.024 -0.367,0.063 -0.531,0.125 -0.168,0.055 -0.305,0.137 -0.406,0.25 -0.094,0.106 -0.141,0.25 -0.141,0.438 0,0.168 0.039,0.308 0.125,0.421 0.094,0.118 0.211,0.204 0.359,0.266 0.157,0.063 0.332,0.094 0.532,0.094 z m 4.644,0.609 c -0.367,0 -0.641,-0.097 -0.828,-0.297 -0.188,-0.195 -0.281,-0.472 -0.281,-0.828 v -5.453 h 0.797 v 5.266 c 0,0.219 0.023,0.375 0.078,0.469 0.05,0.093 0.16,0.14 0.328,0.14 0.082,0 0.144,0 0.187,0 0.051,-0.008 0.094,-0.019 0.125,-0.031 l 0.172,0.656 c -0.074,0.024 -0.164,0.039 -0.265,0.047 -0.106,0.02 -0.211,0.031 -0.313,0.031 z m 4.117,0.063 c -0.554,0 -1.054,-0.133 -1.5,-0.406 -0.437,-0.27 -0.781,-0.657 -1.031,-1.157 -0.25,-0.508 -0.375,-1.109 -0.375,-1.797 0,-0.695 0.125,-1.296 0.375,-1.796 0.25,-0.5 0.594,-0.883 1.031,-1.157 0.446,-0.281 0.946,-0.422 1.5,-0.422 0.332,0 0.645,0.055 0.938,0.157 0.301,0.093 0.566,0.234 0.797,0.422 0.238,0.187 0.437,0.414 0.593,0.671 0.157,0.262 0.258,0.563 0.313,0.907 h -0.828 c -0.055,-0.227 -0.137,-0.426 -0.25,-0.594 -0.106,-0.164 -0.242,-0.305 -0.406,-0.422 -0.168,-0.125 -0.352,-0.211 -0.547,-0.266 -0.188,-0.062 -0.391,-0.093 -0.61,-0.093 -0.386,0 -0.742,0.101 -1.062,0.297 -0.313,0.199 -0.563,0.492 -0.75,0.874 -0.188,0.387 -0.281,0.86 -0.281,1.422 0,0.555 0.093,1.024 0.281,1.407 0.187,0.386 0.437,0.679 0.75,0.875 0.32,0.199 0.676,0.296 1.062,0.296 0.219,0 0.422,-0.023 0.61,-0.078 0.195,-0.062 0.379,-0.148 0.547,-0.265 0.164,-0.125 0.3,-0.27 0.406,-0.438 0.113,-0.176 0.195,-0.375 0.25,-0.593 h 0.828 c -0.055,0.335 -0.156,0.636 -0.313,0.906 -0.156,0.261 -0.355,0.484 -0.593,0.672 -0.231,0.187 -0.496,0.336 -0.797,0.437 -0.293,0.094 -0.606,0.141 -0.938,0.141 z m 4.762,-6.641 v 6.547 h -0.828 v -6.547 z m 2.086,6.609 c -0.168,0 -0.309,-0.058 -0.422,-0.171 -0.117,-0.125 -0.172,-0.266 -0.172,-0.422 0,-0.164 0.055,-0.305 0.172,-0.422 0.113,-0.113 0.254,-0.172 0.422,-0.172 0.156,0 0.289,0.059 0.406,0.172 0.125,0.117 0.188,0.258 0.188,0.422 0,0.156 -0.063,0.297 -0.188,0.422 -0.117,0.113 -0.25,0.171 -0.406,0.171 z m 0,-3.562 c -0.168,0 -0.309,-0.055 -0.422,-0.172 -0.117,-0.125 -0.172,-0.266 -0.172,-0.422 0,-0.164 0.055,-0.304 0.172,-0.422 0.113,-0.113 0.254,-0.172 0.422,-0.172 0.156,0 0.289,0.059 0.406,0.172 0.125,0.118 0.188,0.258 0.188,0.422 0,0.156 -0.063,0.297 -0.188,0.422 -0.117,0.117 -0.25,0.172 -0.406,0.172 z m 2.586,3.562 c -0.168,0 -0.309,-0.058 -0.422,-0.171 -0.117,-0.125 -0.172,-0.266 -0.172,-0.422 0,-0.164 0.055,-0.305 0.172,-0.422 0.113,-0.113 0.254,-0.172 0.422,-0.172 0.156,0 0.289,0.059 0.406,0.172 0.125,0.117 0.188,0.258 0.188,0.422 0,0.156 -0.063,0.297 -0.188,0.422 -0.117,0.113 -0.25,0.171 -0.406,0.171 z m 0,-3.562 c -0.168,0 -0.309,-0.055 -0.422,-0.172 -0.117,-0.125 -0.172,-0.266 -0.172,-0.422 0,-0.164 0.055,-0.304 0.172,-0.422 0.113,-0.113 0.254,-0.172 0.422,-0.172 0.156,0 0.289,0.059 0.406,0.172 0.125,0.118 0.188,0.258 0.188,0.422 0,0.156 -0.063,0.297 -0.188,0.422 -0.117,0.117 -0.25,0.172 -0.406,0.172 z m 3.086,3.531 c -0.367,0 -0.641,-0.097 -0.828,-0.297 -0.188,-0.195 -0.282,-0.472 -0.282,-0.828 v -5.453 h 0.797 v 5.266 c 0,0.219 0.024,0.375 0.078,0.469 0.051,0.093 0.161,0.14 0.329,0.14 0.082,0 0.144,0 0.187,0 0.051,-0.008 0.094,-0.019 0.125,-0.031 l 0.172,0.656 c -0.074,0.024 -0.164,0.039 -0.266,0.047 -0.105,0.02 -0.211,0.031 -0.312,0.031 z m 2.164,-2.969 v 2.938 h -0.797 v -4.906 h 0.766 v 1.187 h -0.11 c 0.156,-0.457 0.367,-0.781 0.641,-0.969 0.281,-0.187 0.609,-0.281 0.984,-0.281 0.321,0 0.61,0.071 0.86,0.203 0.25,0.137 0.441,0.34 0.578,0.61 0.144,0.273 0.219,0.617 0.219,1.031 v 3.125 h -0.797 v -3.047 c 0,-0.383 -0.102,-0.68 -0.297,-0.891 -0.199,-0.218 -0.469,-0.328 -0.813,-0.328 -0.23,0 -0.437,0.055 -0.625,0.157 -0.187,0.105 -0.34,0.257 -0.453,0.453 -0.105,0.199 -0.156,0.437 -0.156,0.718 z m 6.199,3.047 c -0.336,0 -0.633,-0.047 -0.891,-0.14 -0.261,-0.102 -0.48,-0.25 -0.656,-0.438 -0.168,-0.195 -0.281,-0.437 -0.344,-0.719 l 0.75,-0.187 c 0.071,0.273 0.207,0.469 0.407,0.594 0.195,0.125 0.441,0.187 0.734,0.187 0.344,0 0.613,-0.07 0.813,-0.218 0.207,-0.145 0.312,-0.317 0.312,-0.516 0,-0.176 -0.062,-0.317 -0.187,-0.422 -0.118,-0.113 -0.293,-0.203 -0.532,-0.266 l -0.828,-0.187 c -0.437,-0.102 -0.765,-0.266 -0.984,-0.485 -0.219,-0.226 -0.328,-0.515 -0.328,-0.859 0,-0.281 0.078,-0.523 0.234,-0.734 0.156,-0.219 0.367,-0.383 0.641,-0.5 0.281,-0.125 0.593,-0.188 0.937,-0.188 0.344,0 0.629,0.055 0.86,0.157 0.238,0.093 0.429,0.23 0.578,0.406 0.144,0.179 0.254,0.383 0.328,0.609 l -0.703,0.188 c -0.075,-0.176 -0.188,-0.332 -0.344,-0.469 -0.156,-0.145 -0.391,-0.219 -0.703,-0.219 -0.293,0 -0.539,0.07 -0.735,0.203 -0.199,0.137 -0.296,0.305 -0.296,0.5 0,0.188 0.062,0.34 0.187,0.453 0.133,0.106 0.348,0.188 0.641,0.25 l 0.75,0.172 c 0.437,0.117 0.758,0.281 0.968,0.5 0.219,0.219 0.329,0.496 0.329,0.828 0,0.293 -0.086,0.555 -0.25,0.782 -0.157,0.218 -0.383,0.398 -0.672,0.531 -0.293,0.125 -0.633,0.187 -1.016,0.187 z m 5.016,-5.015 v 0.672 h -2.532 v -0.672 z m -1.797,-1.172 h 0.797 v 4.797 c 0,0.23 0.039,0.398 0.125,0.5 0.093,0.093 0.242,0.14 0.453,0.14 0.039,0 0.098,-0.004 0.172,-0.015 0.082,-0.008 0.16,-0.02 0.234,-0.032 l 0.156,0.657 c -0.086,0.031 -0.179,0.051 -0.281,0.062 -0.105,0.02 -0.211,0.031 -0.312,0.031 -0.43,0 -0.762,-0.109 -1,-0.328 -0.231,-0.226 -0.344,-0.546 -0.344,-0.953 z"
       style="fill:#1f1e24;fill-opacity:1;fill-rule:nonzero;stroke:none"
       transform="matrix(0.38779727,0,0,0.38779727,-70.942859,-124.86685)"
       clip-path="url(#clipPath578-0)"
       id="path1872" />
    <path
       d="m 260.383,332.5 v -6.547 h 0.984 l 2.656,4.188 c 0.071,0.105 0.157,0.246 0.25,0.421 0.102,0.168 0.211,0.36 0.329,0.579 0.113,0.211 0.226,0.433 0.343,0.671 h -0.125 c -0.023,-0.25 -0.043,-0.488 -0.062,-0.718 -0.012,-0.227 -0.016,-0.438 -0.016,-0.625 0,-0.196 0,-0.364 0,-0.5 v -4.016 h 0.828 v 6.547 h -0.984 l -2.375,-3.734 c -0.106,-0.164 -0.215,-0.336 -0.328,-0.516 -0.117,-0.188 -0.246,-0.406 -0.391,-0.656 -0.137,-0.25 -0.308,-0.563 -0.515,-0.938 h 0.156 c 0.019,0.324 0.035,0.625 0.047,0.906 0.008,0.274 0.015,0.512 0.015,0.719 0.008,0.211 0.016,0.371 0.016,0.485 v 3.734 z m 8.746,0.109 c -0.481,0 -0.891,-0.105 -1.234,-0.312 -0.344,-0.219 -0.61,-0.516 -0.797,-0.891 -0.188,-0.375 -0.282,-0.816 -0.282,-1.328 0,-0.5 0.086,-0.941 0.266,-1.328 0.188,-0.383 0.445,-0.68 0.781,-0.891 0.332,-0.218 0.723,-0.328 1.172,-0.328 0.258,0 0.516,0.043 0.766,0.125 0.25,0.086 0.476,0.227 0.687,0.422 0.207,0.188 0.375,0.438 0.5,0.75 0.125,0.313 0.188,0.699 0.188,1.156 v 0.328 h -3.813 v -0.671 h 3.375 l -0.359,0.25 c 0,-0.321 -0.055,-0.61 -0.156,-0.86 -0.106,-0.25 -0.258,-0.441 -0.453,-0.578 -0.2,-0.144 -0.446,-0.219 -0.735,-0.219 -0.305,0 -0.558,0.075 -0.765,0.219 -0.211,0.137 -0.372,0.324 -0.485,0.563 -0.117,0.23 -0.172,0.48 -0.172,0.75 v 0.437 c 0,0.367 0.063,0.68 0.188,0.938 0.133,0.25 0.312,0.445 0.531,0.578 0.227,0.125 0.492,0.187 0.797,0.187 0.187,0 0.359,-0.023 0.516,-0.078 0.164,-0.062 0.304,-0.148 0.421,-0.266 0.114,-0.113 0.204,-0.253 0.266,-0.421 l 0.766,0.218 c -0.086,0.243 -0.219,0.453 -0.407,0.641 -0.179,0.188 -0.402,0.34 -0.671,0.453 -0.262,0.102 -0.559,0.156 -0.891,0.156 z m 5.25,0 c -0.481,0 -0.891,-0.105 -1.234,-0.312 -0.344,-0.219 -0.61,-0.516 -0.797,-0.891 -0.188,-0.375 -0.282,-0.816 -0.282,-1.328 0,-0.5 0.086,-0.941 0.266,-1.328 0.188,-0.383 0.445,-0.68 0.781,-0.891 0.332,-0.218 0.723,-0.328 1.172,-0.328 0.258,0 0.516,0.043 0.766,0.125 0.25,0.086 0.476,0.227 0.687,0.422 0.207,0.188 0.375,0.438 0.5,0.75 0.125,0.313 0.188,0.699 0.188,1.156 v 0.328 h -3.813 v -0.671 h 3.375 l -0.359,0.25 c 0,-0.321 -0.055,-0.61 -0.156,-0.86 -0.106,-0.25 -0.258,-0.441 -0.453,-0.578 -0.2,-0.144 -0.446,-0.219 -0.735,-0.219 -0.305,0 -0.558,0.075 -0.765,0.219 -0.211,0.137 -0.372,0.324 -0.485,0.563 -0.117,0.23 -0.172,0.48 -0.172,0.75 v 0.437 c 0,0.367 0.063,0.68 0.188,0.938 0.133,0.25 0.312,0.445 0.531,0.578 0.227,0.125 0.492,0.187 0.797,0.187 0.187,0 0.359,-0.023 0.516,-0.078 0.164,-0.062 0.304,-0.148 0.421,-0.266 0.114,-0.113 0.204,-0.253 0.266,-0.421 l 0.766,0.218 c -0.086,0.243 -0.219,0.453 -0.407,0.641 -0.179,0.188 -0.402,0.34 -0.671,0.453 -0.262,0.102 -0.559,0.156 -0.891,0.156 z m 5.016,0 c -0.407,0 -0.766,-0.105 -1.079,-0.312 -0.312,-0.207 -0.558,-0.5 -0.734,-0.875 -0.18,-0.383 -0.266,-0.836 -0.266,-1.36 0,-0.519 0.086,-0.968 0.266,-1.343 0.176,-0.383 0.422,-0.676 0.734,-0.875 0.313,-0.207 0.676,-0.313 1.094,-0.313 0.313,0 0.563,0.055 0.75,0.157 0.188,0.105 0.332,0.226 0.438,0.359 0.101,0.125 0.179,0.234 0.234,0.328 h 0.063 v -2.422 h 0.781 v 6.547 h -0.766 v -0.766 h -0.078 c -0.055,0.094 -0.133,0.211 -0.234,0.344 -0.106,0.137 -0.258,0.262 -0.453,0.375 -0.188,0.102 -0.438,0.156 -0.75,0.156 z m 0.125,-0.718 c 0.3,0 0.55,-0.079 0.75,-0.235 0.207,-0.156 0.363,-0.367 0.468,-0.64 0.102,-0.282 0.157,-0.602 0.157,-0.969 0,-0.363 -0.055,-0.68 -0.157,-0.953 -0.105,-0.27 -0.261,-0.477 -0.468,-0.625 -0.2,-0.157 -0.45,-0.235 -0.75,-0.235 -0.313,0 -0.575,0.086 -0.782,0.25 -0.211,0.157 -0.367,0.371 -0.468,0.641 -0.094,0.273 -0.141,0.578 -0.141,0.922 0,0.344 0.051,0.656 0.156,0.937 0.102,0.282 0.258,0.508 0.469,0.672 0.207,0.156 0.461,0.235 0.766,0.235 z m 5.214,0.718 c -0.336,0 -0.632,-0.047 -0.89,-0.14 -0.262,-0.102 -0.481,-0.25 -0.656,-0.438 -0.168,-0.195 -0.282,-0.437 -0.344,-0.719 l 0.75,-0.187 c 0.07,0.273 0.207,0.469 0.406,0.594 0.195,0.125 0.441,0.187 0.734,0.187 0.344,0 0.614,-0.07 0.813,-0.218 0.207,-0.145 0.312,-0.317 0.312,-0.516 0,-0.176 -0.062,-0.317 -0.187,-0.422 -0.117,-0.113 -0.293,-0.203 -0.531,-0.266 l -0.829,-0.187 c -0.437,-0.102 -0.765,-0.266 -0.984,-0.485 -0.219,-0.226 -0.328,-0.515 -0.328,-0.859 0,-0.281 0.078,-0.523 0.234,-0.734 0.157,-0.219 0.368,-0.383 0.641,-0.5 0.281,-0.125 0.594,-0.188 0.937,-0.188 0.344,0 0.629,0.055 0.86,0.157 0.238,0.093 0.43,0.23 0.578,0.406 0.145,0.179 0.254,0.383 0.328,0.609 l -0.703,0.188 c -0.074,-0.176 -0.187,-0.332 -0.344,-0.469 -0.156,-0.145 -0.39,-0.219 -0.703,-0.219 -0.293,0 -0.539,0.07 -0.734,0.203 -0.199,0.137 -0.297,0.305 -0.297,0.5 0,0.188 0.062,0.34 0.187,0.453 0.133,0.106 0.348,0.188 0.641,0.25 l 0.75,0.172 c 0.437,0.117 0.758,0.281 0.969,0.5 0.218,0.219 0.328,0.496 0.328,0.828 0,0.293 -0.086,0.555 -0.25,0.782 -0.156,0.218 -0.383,0.398 -0.672,0.531 -0.293,0.125 -0.633,0.187 -1.016,0.187 z m 2.164,-5.921 v -0.735 h 4.938 v 0.735 h -2.047 v 5.812 h -0.844 v -5.812 z m 7.442,5.921 c -0.481,0 -0.891,-0.105 -1.235,-0.312 -0.343,-0.219 -0.609,-0.516 -0.796,-0.891 -0.188,-0.375 -0.282,-0.816 -0.282,-1.328 0,-0.5 0.086,-0.941 0.266,-1.328 0.187,-0.383 0.445,-0.68 0.781,-0.891 0.332,-0.218 0.723,-0.328 1.172,-0.328 0.258,0 0.516,0.043 0.766,0.125 0.25,0.086 0.476,0.227 0.687,0.422 0.207,0.188 0.375,0.438 0.5,0.75 0.125,0.313 0.188,0.699 0.188,1.156 v 0.328 h -3.813 v -0.671 h 3.375 l -0.359,0.25 c 0,-0.321 -0.055,-0.61 -0.156,-0.86 -0.106,-0.25 -0.258,-0.441 -0.454,-0.578 -0.199,-0.144 -0.445,-0.219 -0.734,-0.219 -0.305,0 -0.558,0.075 -0.766,0.219 -0.21,0.137 -0.371,0.324 -0.484,0.563 -0.117,0.23 -0.172,0.48 -0.172,0.75 v 0.437 c 0,0.367 0.063,0.68 0.188,0.938 0.133,0.25 0.312,0.445 0.531,0.578 0.227,0.125 0.492,0.187 0.797,0.187 0.187,0 0.359,-0.023 0.515,-0.078 0.165,-0.062 0.305,-0.148 0.422,-0.266 0.114,-0.113 0.203,-0.253 0.266,-0.421 l 0.766,0.218 c -0.086,0.243 -0.219,0.453 -0.407,0.641 -0.179,0.188 -0.402,0.34 -0.672,0.453 -0.261,0.102 -0.558,0.156 -0.89,0.156 z m 4.844,0 c -0.336,0 -0.633,-0.047 -0.891,-0.14 -0.262,-0.102 -0.481,-0.25 -0.656,-0.438 -0.168,-0.195 -0.282,-0.437 -0.344,-0.719 l 0.75,-0.187 c 0.07,0.273 0.207,0.469 0.406,0.594 0.196,0.125 0.442,0.187 0.735,0.187 0.343,0 0.613,-0.07 0.812,-0.218 0.207,-0.145 0.313,-0.317 0.313,-0.516 0,-0.176 -0.063,-0.317 -0.188,-0.422 -0.117,-0.113 -0.293,-0.203 -0.531,-0.266 l -0.828,-0.187 c -0.438,-0.102 -0.766,-0.266 -0.985,-0.485 -0.218,-0.226 -0.328,-0.515 -0.328,-0.859 0,-0.281 0.078,-0.523 0.235,-0.734 0.156,-0.219 0.367,-0.383 0.64,-0.5 0.281,-0.125 0.594,-0.188 0.938,-0.188 0.343,0 0.629,0.055 0.859,0.157 0.238,0.093 0.43,0.23 0.578,0.406 0.145,0.179 0.254,0.383 0.328,0.609 l -0.703,0.188 c -0.074,-0.176 -0.187,-0.332 -0.344,-0.469 -0.156,-0.145 -0.39,-0.219 -0.703,-0.219 -0.293,0 -0.539,0.07 -0.734,0.203 -0.199,0.137 -0.297,0.305 -0.297,0.5 0,0.188 0.063,0.34 0.188,0.453 0.132,0.106 0.347,0.188 0.64,0.25 l 0.75,0.172 c 0.438,0.117 0.758,0.281 0.969,0.5 0.219,0.219 0.328,0.496 0.328,0.828 0,0.293 -0.086,0.555 -0.25,0.782 -0.156,0.218 -0.383,0.398 -0.672,0.531 -0.293,0.125 -0.633,0.187 -1.015,0.187 z m 5.015,-5.015 v 0.672 h -2.531 v -0.672 z m -1.797,-1.172 h 0.797 v 4.797 c 0,0.23 0.039,0.398 0.125,0.5 0.094,0.093 0.242,0.14 0.453,0.14 0.039,0 0.098,-0.004 0.172,-0.015 0.082,-0.008 0.16,-0.02 0.235,-0.032 l 0.156,0.657 c -0.086,0.031 -0.18,0.051 -0.281,0.062 -0.106,0.02 -0.211,0.031 -0.313,0.031 -0.43,0 -0.762,-0.109 -1,-0.328 -0.23,-0.226 -0.344,-0.546 -0.344,-0.953 z m 2.809,6.078 v -4.906 h 0.797 v 4.906 z m 0.406,-5.719 c -0.148,0 -0.277,-0.051 -0.39,-0.156 -0.106,-0.102 -0.157,-0.223 -0.157,-0.359 0,-0.145 0.051,-0.27 0.157,-0.375 0.113,-0.102 0.25,-0.157 0.406,-0.157 0.144,0 0.269,0.055 0.375,0.157 0.113,0.105 0.172,0.226 0.172,0.359 0,0.148 -0.059,0.273 -0.172,0.375 -0.106,0.105 -0.235,0.156 -0.391,0.156 z m 2.567,2.781 v 2.938 h -0.797 v -4.906 h 0.765 v 1.187 h -0.109 c 0.156,-0.457 0.367,-0.781 0.641,-0.969 0.281,-0.187 0.609,-0.281 0.984,-0.281 0.32,0 0.609,0.071 0.859,0.203 0.25,0.137 0.442,0.34 0.578,0.61 0.145,0.273 0.219,0.617 0.219,1.031 v 3.125 h -0.797 v -3.047 c 0,-0.383 -0.101,-0.68 -0.297,-0.891 -0.199,-0.218 -0.468,-0.328 -0.812,-0.328 -0.23,0 -0.438,0.055 -0.625,0.157 -0.188,0.105 -0.34,0.257 -0.453,0.453 -0.106,0.199 -0.156,0.437 -0.156,0.718 z m 6.527,4.876 c -0.367,0 -0.684,-0.047 -0.953,-0.141 -0.262,-0.086 -0.481,-0.203 -0.656,-0.359 -0.18,-0.157 -0.321,-0.325 -0.422,-0.5 l 0.656,-0.407 c 0.062,0.094 0.144,0.196 0.25,0.313 0.102,0.113 0.242,0.207 0.422,0.281 0.176,0.082 0.41,0.125 0.703,0.125 0.394,0 0.719,-0.094 0.969,-0.281 0.25,-0.188 0.375,-0.485 0.375,-0.891 v -0.984 h -0.078 c -0.055,0.094 -0.133,0.211 -0.235,0.344 -0.094,0.124 -0.242,0.242 -0.437,0.343 -0.188,0.094 -0.438,0.141 -0.75,0.141 -0.399,0 -0.75,-0.094 -1.063,-0.281 -0.312,-0.188 -0.562,-0.457 -0.75,-0.813 -0.18,-0.351 -0.265,-0.789 -0.265,-1.312 0,-0.5 0.085,-0.938 0.265,-1.313 0.188,-0.375 0.438,-0.66 0.75,-0.859 0.313,-0.207 0.672,-0.313 1.078,-0.313 0.321,0 0.578,0.055 0.766,0.157 0.187,0.105 0.328,0.226 0.422,0.359 0.101,0.125 0.187,0.234 0.25,0.328 h 0.078 v -0.781 h 0.766 v 5.031 c 0,0.426 -0.102,0.77 -0.297,1.031 -0.188,0.27 -0.446,0.469 -0.766,0.594 -0.324,0.125 -0.684,0.188 -1.078,0.188 z m -0.031,-2.719 c 0.3,0 0.554,-0.067 0.765,-0.203 0.207,-0.133 0.364,-0.328 0.469,-0.578 0.102,-0.258 0.156,-0.571 0.156,-0.938 0,-0.344 -0.054,-0.645 -0.156,-0.906 -0.105,-0.27 -0.262,-0.477 -0.469,-0.625 -0.211,-0.157 -0.465,-0.235 -0.765,-0.235 -0.305,0 -0.559,0.086 -0.766,0.25 -0.211,0.157 -0.367,0.371 -0.469,0.641 -0.105,0.262 -0.156,0.555 -0.156,0.875 0,0.344 0.051,0.648 0.156,0.906 0.102,0.25 0.258,0.449 0.469,0.594 0.207,0.148 0.461,0.219 0.766,0.219 z"
       style="fill:#1f1e24;fill-opacity:1;fill-rule:nonzero;stroke:none"
       transform="matrix(0.38779727,0,0,0.38779727,-70.942859,-124.86685)"
       clip-path="url(#clipPath579-3)"
       id="path1873" />
  </g>
</svg>
